<svg width="211" height="48" fill="none" xmlns="http://www.w3.org/2000/svg"><path d="M159.597 25.693s-28.931-.811-51.103 3.38c-16.63 3.11-18.454 6.084-48.13 8.18-24.808.405-57.795.54-57.795.54l.135 1.014 132.964-.203s.676-.338 1.419-.811c2.163-1.15 6.895-3.312 14.804-5.408 21.631-5.678 57.728-4.596 57.728-4.596l.271-1.285-50.293-.81zm-60.702-2.84c22.915-8.45 60.026-7.976 83.212-6.624-4.732-.473-13.181-1.217-27.985-2.299-27.445-2.027-42.248-3.244-55.227-.878-13.046 2.433-20.009 7.165-27.31 9.936-9.328 3.515-16.831 6.22-21.766 6.828 7.165.067 32.109-.676 49.076-6.963z" fill="#fff"/><path d="M99.03 23.26c-10.545 3.92-23.862 5.61-33.19 6.354-4.732.405-9.329.54-12.776.608 7.368.338 22.51.541 38.327-2.163 14.061-2.366 18.049-2.974 42.857-4.056 24.538-1.081 48.265.338 48.265.338l4.664-7.3c-22.375-1.623-63.542-2.84-88.147 6.219z" fill="#fff"/><path d="M209.687 15.688c-30.284-2.974-50.969-4.867-61.581-5.678a263.686 263.686 0 01-9.058-.811c-15.683-1.42-35.151-3.177-50.63-.473-5.476.946-10.005 2.027-14.399 2.974-10.545 2.433-19.67 4.529-38.395 4.867-11.424.203-18.454.27-23.186.27-2.23 0-3.988 0-5.475-.067 5.002.473 12.437 1.622 20.752 4.258 15.21 4.8 25.687 2.569 38.53-1.284 16.359-4.867 27.377-12.506 54.551-10.545 30.419 2.23 88.756 7.098 88.756 7.098l1.419.067-.203-.608-1.081-.068z" fill="#fff"/><path d="M.27 16.432v-.203h3.042c4.867.136 10.343.203 32.312-.135 18.657-.338 27.782-2.433 38.26-4.8 4.394-1.013 8.855-2.027 14.398-2.974 15.547-2.771 35.083-.946 50.766.474 3.177.27 6.219.54 9.058.81 10.612.812 31.297 2.772 61.581 5.679h.135c-8.99-1.69-93.284-16.9-127.42-15.142C46.303 1.966 30.012 13.998 1.757 14.54c-.744 0-1.15.068-1.758.136l.27 1.757zm8.112 24.876H6.557v5.002h-.744v-5.002H4.056v-.609h4.326v.609zm2.096 5.07a1.887 1.887 0 01-1.352-.541 2.227 2.227 0 01-.541-1.487v-.135c0-.406.067-.812.27-1.082a1.47 1.47 0 01.676-.744c.27-.202.609-.27.947-.27.54 0 .946.203 1.284.54.27.339.473.88.473 1.556v.27H9.396c0 .406.135.744.338 1.014s.54.406.879.406c.27 0 .473-.068.608-.136a2.94 2.94 0 00.473-.405l.406.338a2.239 2.239 0 01-1.622.676zm-.136-3.718c-.27 0-.54.135-.743.338-.203.203-.338.473-.338.879h2.095v-.068c0-.338-.135-.676-.27-.811-.203-.27-.406-.338-.744-.338zm5.138 3.65c-.068-.067-.068-.202-.068-.473-.338.338-.743.541-1.217.541a1.66 1.66 0 01-1.014-.338c-.27-.203-.405-.54-.405-.879 0-.405.135-.743.473-1.014.338-.27.811-.338 1.42-.338h.676v-.338c0-.27-.068-.473-.203-.608s-.338-.203-.676-.203c-.27 0-.473.068-.609.203-.202.135-.27.27-.27.473h-.743c0-.203.067-.405.202-.608.136-.203.338-.338.609-.474.27-.135.54-.202.81-.202.474 0 .88.135 1.15.338.27.27.405.54.405 1.014v1.892c0 .406.068.676.136.947v.067h-.676zm-1.15-.54c.203 0 .406-.068.609-.203.203-.135.338-.27.406-.473v-.88h-.541c-.879 0-1.285.271-1.285.744 0 .203.068.406.203.541.135.203.338.27.609.27zm5.95-3.043h-1.42v3.583h-.744v-3.583h-1.352v-.608h3.515v.608zm4.19 1.555c0 .609-.135 1.15-.405 1.555-.27.406-.676.609-1.15.609-.54 0-.878-.136-1.216-.474V48h-.744v-5.813h.676v.406c.27-.339.676-.541 1.217-.541.473 0 .879.203 1.217.54.27.406.405.947.405 1.69zm-.676-.135c0-.473-.067-.81-.27-1.149a.963.963 0 00-.811-.405c-.406 0-.744.202-.947.608v2.028c.203.405.541.54 1.014.54a.963.963 0 00.811-.405c.068-.27.203-.676.203-1.217zm3.38 0c0-.405.068-.743.27-1.081a1.47 1.47 0 01.676-.744c.27-.203.609-.27 1.014-.27.541 0 1.014.203 1.352.608.338.406.541.947.541 1.555v.067c0 .406-.068.744-.203 1.082a1.466 1.466 0 01-.676.744c-.27.202-.608.27-1.014.27-.54 0-1.014-.203-1.352-.608-.473-.406-.608-.88-.608-1.623zm.676.136c0 .473.135.81.338 1.149.203.27.473.405.879.405.338 0 .676-.135.879-.405.202-.27.337-.676.337-1.217 0-.473-.135-.811-.337-1.082-.203-.27-.474-.405-.88-.405-.337 0-.608.135-.878.405-.203.203-.338.609-.338 1.15zm7.436 2.027h-.744v-3.583H32.65v3.583h-.744v-4.19h3.38v4.19zm2.907.068a1.887 1.887 0 01-1.352-.541 2.227 2.227 0 01-.541-1.487v-.135c0-.406.067-.812.27-1.082a1.47 1.47 0 01.676-.744c.27-.202.608-.27.947-.27.54 0 .946.203 1.284.54.27.339.473.88.473 1.556v.27h-2.84c0 .406.136.744.339 1.014s.54.406.879.406c.27 0 .473-.068.608-.136a2.94 2.94 0 00.473-.405l.406.338a2.239 2.239 0 01-1.622.676zm-.136-3.718c-.27 0-.54.135-.743.338-.203.203-.338.473-.338.879h2.095v-.068c0-.338-.135-.676-.27-.811-.203-.27-.406-.338-.744-.338zm6.084 1.622c0 .609-.135 1.15-.406 1.555-.27.406-.676.608-1.149.608-.54 0-.878-.135-1.216-.473V48h-.744v-5.813h.676l.068.473c.27-.338.675-.54 1.216-.54.473 0 .879.202 1.217.54.203.338.338.879.338 1.622zm-.744-.135c0-.473-.067-.811-.27-1.15a.964.964 0 00-.811-.405c-.406 0-.744.203-.947.609v2.028c.203.405.541.54 1.014.54a.964.964 0 00.812-.405c.135-.27.202-.676.202-1.217zm2.434-.608h1.082c.473 0 .878.135 1.149.338.27.203.405.54.405 1.014 0 .405-.135.743-.405 1.014-.27.27-.676.405-1.15.405h-1.757v-4.19h.744v1.419h-.068zm0 .608v1.555h1.082c.27 0 .473-.068.608-.203a.768.768 0 00.203-.54.768.768 0 00-.203-.542c-.135-.135-.338-.202-.608-.202H45.83v-.068zm4.123 2.163h-.743v-4.19h.743v4.19zm5.881-4.19h.744v4.19h-.744v-3.042l-1.96 3.042h-.744v-4.19h.744v3.041l1.96-3.042zm5.679.27c.54 0 .946.202 1.284.54.338.338.473.811.473 1.42v.067c0 .406-.068.744-.203 1.082-.135.338-.338.54-.676.743-.27.203-.608.27-1.014.27-.54 0-1.014-.202-1.352-.54a2.227 2.227 0 01-.54-1.487v-.54c0-.88.135-1.556.473-2.096.338-.541.81-.811 1.42-.947.337-.067.608-.135.743-.203.135-.067.203-.202.203-.405h.608c0 .338-.068.54-.203.744-.135.202-.405.338-.676.405l-.54.135c-.406.068-.744.27-.947.541-.203.27-.338.54-.405.946.338-.473.81-.675 1.352-.675zm-.136.54a1.12 1.12 0 00-.81.338c-.204.203-.339.541-.339.947v.067c0 .473.135.811.338 1.082.203.27.473.405.811.405a.964.964 0 00.812-.405c.202-.27.338-.676.338-1.15 0-.405-.136-.743-.338-.946a1.12 1.12 0 00-.812-.338zm5.272 3.38c-.067-.067-.067-.202-.067-.473-.338.338-.743.541-1.216.541a1.66 1.66 0 01-1.014-.338c-.27-.203-.406-.54-.406-.879 0-.405.135-.743.473-1.014.338-.27.811-.338 1.42-.338h.676v-.338c0-.27-.068-.473-.203-.608s-.338-.203-.676-.203c-.27 0-.473.068-.608.203-.203.135-.27.27-.27.473h-.744c0-.203.067-.405.202-.608.136-.203.338-.338.609-.474.27-.135.54-.202.811-.202.473 0 .879.135 1.15.338.27.203.405.54.405 1.014v1.892c0 .406.067.676.135.947v.067h-.676zm-1.216-.54c.203 0 .406-.068.609-.203.202-.135.337-.27.405-.473v-.88h-.54c-.88 0-1.285.271-1.285.744 0 .203.068.406.203.541.203.203.405.27.608.27zm6.354-3.65v4.19h-.743v-3.583h-1.42l-.067 1.555c-.068.744-.136 1.217-.338 1.555-.203.338-.474.473-.947.473h-.27v-.608h.203c.202 0 .405-.135.473-.406.067-.27.135-.676.203-1.352l.067-1.757h2.84v-.068zm2.839 4.258c-.54 0-1.014-.203-1.352-.541a2.227 2.227 0 01-.54-1.487v-.135c0-.406.067-.812.27-1.082a1.47 1.47 0 01.676-.744c.27-.202.608-.27.946-.27.541 0 .947.203 1.285.54.27.339.473.88.473 1.556v.27h-2.84c0 .406.136.744.339 1.014s.54.406.879.406c.27 0 .473-.068.608-.136a2.94 2.94 0 00.473-.405l.406.338c-.338.405-.88.676-1.623.676zm-.067-3.718c-.27 0-.541.135-.744.338-.203.203-.338.473-.338.879h2.096v-.068c0-.338-.135-.676-.27-.811-.204-.27-.406-.338-.744-.338zm5.61.067h-1.42v3.583h-.743v-3.583h-1.352v-.608h3.515v.608zm3.245 3.583c-.068-.067-.068-.202-.068-.473-.337.338-.743.541-1.216.541a1.66 1.66 0 01-1.014-.338c-.27-.203-.406-.54-.406-.879 0-.405.135-.743.473-1.014.338-.27.812-.338 1.42-.338h.676v-.338c0-.27-.068-.473-.203-.608s-.338-.203-.676-.203c-.27 0-.473.068-.608.203-.203.135-.27.27-.27.473h-.744c0-.203.067-.405.203-.608.135-.203.338-.338.608-.474.27-.135.54-.202.811-.202.473 0 .879.135 1.15.338.27.27.405.54.405 1.014v1.892c0 .406.067.676.135.947v.067h-.676zm-1.217-.54c.203 0 .406-.068.609-.203.203-.135.338-.27.405-.473v-.88h-.54c-.88 0-1.285.271-1.285.744 0 .203.068.406.203.541.203.203.406.27.608.27zm9.193-1.353c-.067.609-.27 1.082-.675 1.42-.406.338-.947.54-1.623.54-.743 0-1.284-.27-1.69-.743-.405-.473-.608-1.149-.608-2.028v-.338c0-.54.067-1.014.27-1.42.203-.405.474-.743.811-.946a2.334 2.334 0 011.217-.337c.676 0 1.15.202 1.555.54.406.338.608.811.676 1.487h-1.15a1.45 1.45 0 00-.27-.81c-.202-.136-.405-.271-.81-.271-.406 0-.677.135-.88.405-.202.27-.27.676-.27 1.285v.405c0 .609.068 1.082.27 1.352.203.27.474.406.88.406.337 0 .608-.068.81-.27.203-.136.27-.406.27-.744h1.217v.067zm2.637 1.961a2.227 2.227 0 01-1.487-.54c-.406-.406-.609-.88-.609-1.488v-.135c0-.406.068-.811.27-1.15a1.47 1.47 0 01.677-.743c.27-.203.608-.27 1.014-.27.54 0 1.014.203 1.352.54.338.339.473.88.473 1.555v.474h-2.636c.067.27.135.473.338.675.202.136.405.27.675.27.406 0 .744-.134 1.014-.472l.541.608c-.135.27-.405.406-.676.54a3.99 3.99 0 01-.946.136zm-.135-3.447a.768.768 0 00-.541.202c-.135.136-.203.338-.27.676h1.554v-.067c0-.27-.067-.473-.203-.609-.135-.135-.27-.203-.54-.203zm2.568 3.379v-4.19h1.758c.54 0 1.014.067 1.284.27.27.202.473.473.473.878 0 .203-.067.338-.202.541-.136.135-.338.27-.541.338.27.068.54.135.676.338.203.135.27.338.27.608 0 .406-.135.676-.405.88-.27.202-.744.337-1.285.337h-2.028zm1.082-2.5h.676c.406 0 .608-.136.608-.407a.516.516 0 00-.135-.337c-.135-.068-.27-.068-.473-.068h-.608v.811h-.068zm0 .743v.81h.879c.405 0 .608-.134.608-.405 0-.27-.203-.405-.54-.405h-.947zm5.746 1.757c-.068-.068-.068-.203-.135-.406-.271.27-.609.473-1.082.473-.406 0-.744-.135-1.014-.338-.27-.27-.406-.54-.406-.879 0-.473.136-.81.474-1.013.338-.27.811-.338 1.419-.338h.541v-.27c0-.204-.068-.339-.135-.474-.068-.135-.271-.203-.473-.203-.203 0-.338.068-.474.135-.135.068-.135.203-.135.338h-1.149c0-.27.068-.473.203-.676.135-.202.338-.338.608-.473.271-.135.609-.203.947-.203.54 0 .946.136 1.216.406.271.27.473.608.473 1.081v1.826c0 .405.068.676.136.878v.068h-1.014v.068zm-.947-.812c.136 0 .338-.067.474-.135.135-.067.27-.203.338-.27v-.744h-.406c-.541 0-.879.203-.879.609v.067c0 .136.068.27.135.338.068.136.203.136.338.136zm4.462.002c.202 0 .405-.068.473-.204a.615.615 0 00.203-.473h1.014c0 .27-.068.541-.203.811a1.592 1.592 0 01-.609.541 1.87 1.87 0 01-.878.203c-.609 0-1.082-.203-1.42-.54-.338-.406-.541-.88-.541-1.556v-.067c0-.676.203-1.15.541-1.555s.811-.608 1.42-.608c.54 0 .946.135 1.284.473.338.27.473.676.473 1.217h-1.014a.764.764 0 00-.203-.541c-.135-.135-.27-.203-.54-.203-.271 0-.473.068-.609.27-.135.203-.202.474-.202.947v.135c0 .406.067.744.202.946.136.068.338.203.609.203zm5.881-2.502h-1.352v3.312h-1.149v-3.312h-1.285v-.879h3.786v.879zm.27 1.149c0-.405.068-.81.27-1.081a1.47 1.47 0 01.676-.744c.271-.203.676-.27 1.014-.27a1.89 1.89 0 011.352.54c.338.339.541.812.609 1.42v.27a2.41 2.41 0 01-.541 1.555c-.338.406-.811.609-1.42.609-.608 0-1.081-.203-1.419-.609-.338-.405-.541-.946-.541-1.69zm1.082.136c0 .405.067.675.202.878a.711.711 0 00.609.338.71.71 0 00.608-.338c.135-.203.203-.54.203-1.014 0-.405-.068-.676-.203-.878a.71.71 0 00-.608-.338.711.711 0 00-.609.338c-.067.202-.202.54-.202 1.014zm7.165 2.027h-1.149v-3.312h-1.42v3.312h-1.014v-4.19h3.65v4.19h-.067zm.743-2.163c0-.405.068-.81.271-1.081.135-.338.405-.609.676-.744.27-.203.676-.27 1.014-.27a1.89 1.89 0 011.352.54c.338.339.541.812.608 1.42v.27a2.41 2.41 0 01-.541 1.555c-.338.406-.811.609-1.419.609-.609 0-1.082-.203-1.42-.609-.405-.405-.541-.946-.541-1.69zm1.082.136c0 .405.068.675.203.878a.71.71 0 00.608.338.711.711 0 00.609-.338c.135-.203.202-.54.202-1.014 0-.405-.067-.676-.202-.878a.711.711 0 00-.609-.338.71.71 0 00-.608.338c-.135.202-.203.54-.203 1.014zm7.098-2.163v4.19h-1.149v-3.312h-1.014l-.068 1.284c-.068.676-.203 1.217-.405 1.487-.203.338-.541.474-1.014.474h-.406v-.88h.135c.203 0 .338-.134.473-.337.068-.203.136-.609.203-1.15l.068-1.757h3.177zm2.028 1.216h.811c.338 0 .676.067.946.203.271.135.473.27.609.54.135.203.202.473.202.811 0 .474-.135.812-.473 1.082-.338.27-.743.406-1.352.406h-1.893v-4.191h1.15v1.149zm0 .878v1.15h.811c.203 0 .405-.068.541-.136.135-.135.202-.27.202-.405 0-.203-.067-.338-.202-.406-.136-.135-.271-.135-.541-.135h-.811v-.068z" fill="#fff"/></svg>