<svg width="1866" height="344" fill="none" xmlns="http://www.w3.org/2000/svg"><path d="M1411.11 227.17s-255.81-7.172-451.844 29.884c-147.028 27.493-163.165 53.791-425.545 72.319-219.346 3.586-511.012 4.781-511.012 4.781l1.195 8.965 1175.626-1.793s5.98-2.988 12.55-7.172c19.13-10.16 60.97-29.286 130.89-47.814 191.26-50.204 510.42-40.642 510.42-40.642l2.39-11.356-444.67-7.172zm-536.72-25.103c202.61-74.71 530.74-70.526 735.74-58.572-41.84-4.184-116.55-10.759-247.44-20.321-242.65-17.931-373.546-28.689-488.3-7.77-115.351 21.516-176.912 63.353-241.46 87.858-82.48 31.079-148.822 54.986-192.452 60.365 63.354.598 283.896-5.976 433.912-61.56z" fill="#3F5BAB"/><path d="M875.599 205.655c-93.237 34.666-210.979 49.608-293.458 56.182-41.837 3.586-82.479 4.781-112.961 5.379 65.147 2.988 199.026 4.781 338.882-19.126 124.317-20.918 159.58-26.297 378.928-35.86 216.95-9.563 426.74 2.988 426.74 2.988l41.24-64.549c-197.83-14.344-561.82-25.102-779.371 54.986z" fill="#3F5BAB"/><path d="M1853.99 138.714c-267.76-26.298-450.64-43.033-544.48-50.205-25.1-1.793-52-4.183-80.09-7.172-138.66-12.55-310.789-28.09-447.657-4.184-48.411 8.368-88.456 17.93-127.305 26.298-93.237 21.517-173.923 40.044-339.479 43.033-101.007 1.793-163.166 2.391-205.003 2.391-19.723 0-35.263 0-48.411-.598 44.227 4.184 109.972 14.344 183.486 37.653 134.477 42.435 227.116 22.712 340.675-11.355 144.637-43.033 242.058-110.57 482.324-93.238 268.95 19.724 784.75 62.756 784.75 62.756l12.55.598-1.79-5.379-9.57-.598z" fill="#3F5BAB"/><path d="M2.39 145.287v-1.793h26.896c43.033 1.196 91.444 1.793 285.689-1.195 164.958-2.988 245.645-21.516 338.284-42.435 38.849-8.965 78.296-17.93 127.305-26.298C918.029 49.062 1090.76 65.2 1229.42 77.75c28.09 2.39 54.98 4.781 80.09 7.172 93.83 7.172 276.72 24.505 544.48 50.205h1.19c-79.49-14.942-824.79-149.419-1126.614-133.88C409.408 17.386 265.368 123.772 15.54 128.553c-6.575 0-10.16.598-15.54 1.196l2.39 15.539z" fill="#3F5BAB"/></svg>