<svg width="194" height="40" fill="none" xmlns="http://www.w3.org/2000/svg"><g clip-path="url(#clip0)" fill="#fff"><path d="M50.089 18.3c.04.342.104.88.516 1.014.278.087.522.087.62.087.046 0 .076.01.076.048 0 .057-.087.087-.2.087h-.972c-.248 0-.486.01-.62 0-.218-.02-.295-.04-.295-.114 0-.037.067-.057.114-.067.047-.01.037-.209.02-.38l-.459-4.932h-.03l-2.334 4.969c-.201.42-.228.507-.315.507-.067 0-.114-.094-.295-.44-.248-.467-1.069-2.12-1.116-2.217a163.264 163.264 0 01-1.26-2.725h-.036l-.382 4.435c-.01.154-.01.326-.01.487 0 .144.104.269.248.296.16.04.305.046.362.046.037 0 .077.02.077.048 0 .067-.057.087-.171.087-.352 0-.81-.03-.888-.03-.087 0-.542.03-.8.03-.097 0-.161-.02-.161-.087 0-.03.047-.048.094-.048.077 0 .144 0 .285-.026.314-.058.341-.43.381-.793l.687-6.232c.02-.104.047-.172.104-.172.057 0 .097.037.144.145l2.914 6.014 2.8-6.004c.037-.088.078-.155.145-.155.067 0 .097.077.114.259l.643 5.863zm2.917 1.175c-.047.316.104.353.228.152l.114-.152.79-1.02a104.53 104.53 0 013.689-4.523c.087-.104.134-.047.134.067v2.762c0 .917 0 1.673-.047 2.073-.037.275-.087.487-.278.524-.084.02-.201.037-.285.037-.057 0-.077.03-.077.057 0 .057.047.077.154.077.285 0 .888-.03.934-.03.047 0 .647.03 1.173.03.104 0 .154-.03.154-.077 0-.027-.02-.057-.077-.057a4.76 4.76 0 01-.429-.037c-.285-.037-.341-.249-.372-.524-.047-.403-.047-1.156-.047-2.073V12.44c.047-.316-.103-.352-.227-.154a128.038 128.038 0 01-4.64 5.705c-.036.047-.087.036-.087-.038 0-3.154 0-4.636.02-4.941.02-.333.094-.498.352-.545.114-.017.17-.027.238-.027.037 0 .077-.02.077-.057 0-.057-.047-.077-.15-.077-.286 0-.889.03-.935.03-.047 0-.647-.03-1.076-.03-.103 0-.154.02-.154.077 0 .037.037.057.077.057.087 0 .248.01.325.027.315.067.392.222.409.544.02.306 0 .575.02 2.067v4.397h-.007zm14.907-4.397c0-1.492 0-1.757.02-2.066.02-.333.097-.498.351-.545.114-.017.171-.027.238-.027.037 0 .077-.02.077-.057 0-.057-.047-.077-.154-.077-.284 0-.887.03-.934.03-.047 0-.647-.03-1.076-.03-.103 0-.154.02-.154.077 0 .037.037.057.077.057.087 0 .248.01.325.027.315.067.392.222.409.544.02.306.02.68.02 2.17v.202c0 .047-.027.058-.057.058h-4.04c-.03 0-.057-.01-.057-.058v-.201c0-1.492 0-1.865.02-2.17.02-.333.094-.498.352-.545.114-.017.171-.027.238-.027.037 0 .077-.02.077-.057 0-.057-.047-.077-.154-.077-.285 0-.888.03-.935.03-.046 0-.646-.03-1.075-.03-.104 0-.154.02-.154.077 0 .037.037.057.077.057.087 0 .248.01.325.027.315.067.389.222.409.544.02.306.02.575.02 2.067v1.683c0 .917 0 1.673-.047 2.073-.037.275-.087.487-.278.524-.087.02-.201.037-.285.037-.057 0-.077.03-.077.057 0 .057.047.077.154.077.285 0 .888-.03.935-.03.047 0 .65.03 1.172.03.104 0 .154-.03.154-.077 0-.027-.02-.057-.077-.057a4.76 4.76 0 01-.429-.037c-.284-.037-.341-.249-.371-.524-.047-.403-.047-1.156-.047-2.073v-.897c0-.047.03-.057.057-.057h4.04c.03 0 .056.02.056.057v.897c0 .917 0 1.673-.046 2.073-.037.275-.084.487-.275.524-.087.02-.201.037-.285.037-.057 0-.077.03-.077.057 0 .057.047.077.154.077.285 0 .888-.03.935-.03.047 0 .65.03 1.172.03.104 0 .154-.03.154-.077 0-.027-.02-.057-.077-.057a4.76 4.76 0 01-.429-.037c-.284-.037-.345-.249-.371-.524-.047-.403-.047-1.156-.047-2.073v-1.683h-.01zm3.393 4.397c-.047.316.104.353.228.152l.114-.152.79-1.02c1.183-1.55 2.432-3.051 3.688-4.523.084-.104.134-.047.134.067v2.762c0 .917 0 1.673-.047 2.073-.037.275-.084.487-.274.524-.087.02-.201.037-.285.037-.057 0-.077.03-.077.057 0 .057.047.077.154.077.285 0 .884-.03.934-.03.047 0 .647.03 1.173.03.104 0 .154-.03.154-.077 0-.027-.02-.057-.077-.057a4.76 4.76 0 01-.429-.037c-.285-.037-.342-.249-.372-.524-.047-.403-.047-1.156-.047-2.073V12.44c.047-.316-.103-.352-.227-.154a130.518 130.518 0 01-4.64 5.705c-.037.047-.087.036-.087-.038 0-3.154 0-4.636.02-4.941.02-.333.097-.498.352-.545.114-.017.17-.027.238-.027.037 0 .077-.02.077-.057 0-.057-.047-.077-.15-.077-.286 0-.889.03-.936.03-.046 0-.646-.03-1.078-.03-.104 0-.154.02-.154.077 0 .037.037.057.077.057.087 0 .248.01.325.027.315.067.392.222.409.544.02.306 0 .575.02 2.067v4.397h-.007zm7.728-3.672c0 2.208 1.39 3.86 4.297 3.86.61 0 1.334-.067 1.715-.218.171-.077.191-.097.248-.279.097-.326.211-1.155.211-1.223 0-.077-.02-.144-.067-.144-.056 0-.077.037-.093.144-.03.172-.154.592-.352.803-.382.394-.945.478-1.658.478-2.04 0-3.44-1.674-3.44-3.498 0-1.693.6-3.192 3.048-3.192 1.192 0 2.305.404 2.305 1.519 0 .134.01.201.076.201.078 0 .098-.144.098-.6 0-.555.067-1.012.067-1.12 0-.057-.02-.104-.124-.104-.362 0-1.22-.258-2.355-.258-3.035 0-3.976 2.103-3.976 3.631zm11.12-3.087l1.2.02c.915.02 1.136.239 1.172.524l.01.104c.01.135.03.161.078.161.036 0 .066-.037.066-.124 0-.104.027-.766.027-1.051 0-.057 0-.115-.047-.115-.077 0-.334.098-.944.098h-3.574c-.114 0-.476-.02-.754-.047-.258-.02-.352-.114-.419-.114-.037 0-.077.124-.093.181-.02.077-.208.9-.208.994 0 .058.02.088.047.088.036 0 .067-.02.093-.098.027-.067.057-.134.161-.295.154-.229.382-.296.972-.306l1.41-.02v4.042c0 .917 0 1.673-.047 2.072-.037.276-.087.488-.275.525-.087.02-.2.036-.284.036-.057 0-.077.03-.077.058 0 .057.046.077.154.077.284 0 .887-.03.934-.03.047 0 .647.03 1.173.03.103 0 .15-.03.15-.077 0-.027-.02-.058-.077-.058-.087 0-.294-.02-.428-.036-.285-.038-.342-.25-.372-.525-.047-.403-.047-1.155-.047-2.072v-4.042zm5.357.057c0-.067.02-.084.057-.084.19 0 1.049.027 1.105.027.563 0 .791.191.848.316.057.124.087.285.087.363 0 .067.02.104.067.104s.067-.047.077-.094c.02-.115.037-.535.047-.632.03-.269.077-.383.077-.45 0-.047-.02-.104-.057-.104-.037 0-.077.04-.134.057-.037.01-.265.03-.419.037-.15.01-1.125.02-2.154.02-.046 0-.646-.03-1.075-.03-.104 0-.154.02-.154.077 0 .037.037.057.077.057.087 0 .248.01.325.027.315.067.372.211.399.44.02.161.03.564.03 2.17v1.684c0 1.165-.02 1.938-.067 2.19-.057.276-.104.363-.258.41a1.052 1.052 0 01-.285.037c-.057 0-.077.03-.077.057 0 .057.047.077.154.077.211 0 .687-.03.935-.03.278 0 .914.057 2.355.057.371 0 .448 0 .512-.248a9.59 9.59 0 00.124-.928c0-.067 0-.144-.057-.144-.047 0-.067.04-.087.144-.067.393-.18.585-.429.689-.248.104-.666.104-.914.104-.935 0-1.106-.151-1.106-.783v-2.476c0-.037.02-.067.067-.067.161 0 1.106.017 1.364.047.372.037.459.202.496.336.036.124.036.218.036.316 0 .047.02.084.067.084.057 0 .067-.078.067-.182 0-.47.114-1.108.114-1.149 0-.057-.02-.077-.047-.077-.04 0-.077.047-.144.124-.087.098-.217.115-.449.135-.22.02-1.39.02-1.514.02-.046 0-.057-.03-.057-.098v-2.63h-.003zm5.015 3.988c0 .917 0 1.673-.047 2.073-.037.275-.087.487-.275.524-.087.02-.201.037-.285.037-.057 0-.077.03-.077.057 0 .057.047.077.154.077.285 0 .888-.03.915-.03.047 0 .646.03 1.172.03.104 0 .154-.03.154-.077 0-.027-.02-.057-.077-.057-.087 0-.294-.02-.428-.037-.285-.037-.342-.249-.372-.524-.047-.403-.047-1.156-.047-2.073V12.83c0-.097.02-.161.077-.181.087-.037.248-.057.409-.057.221 0 .8-.037 1.306.477.506.517.533 1.155.533 1.471 0 .88-.724 1.559-1.649 1.559-.201 0-.257.01-.257.087 0 .047.056.067.103.067.047.01.154.01.201.01 1.354 0 2.345-.917 2.345-2.274 0-.507-.268-.937-.475-1.135-.151-.145-.58-.545-1.773-.545-.438 0-.991.03-1.199.03-.077 0-.65-.03-1.075-.03-.104 0-.154.02-.154.078 0 .037.037.057.077.057.087 0 .248.01.325.027.315.067.392.221.409.544.02.306.02.574.02 2.066v1.68h-.01zm5.031-.958c0 2.208 1.39 3.86 4.298 3.86.609 0 1.333-.067 1.715-.218.171-.077.191-.097.248-.279.097-.326.211-1.155.211-1.223 0-.077-.02-.144-.067-.144-.057 0-.077.037-.098.144-.026.172-.154.592-.351.803-.382.394-.945.478-1.658.478-2.04 0-3.441-1.674-3.441-3.498 0-1.693.6-3.192 3.049-3.192 1.189 0 2.304.404 2.304 1.519 0 .134.01.201.077.201.077 0 .098-.144.098-.6 0-.555.067-1.012.067-1.12 0-.057-.021-.104-.124-.104-.362 0-1.22-.258-2.355-.258-3.028 0-3.973 2.103-3.973 3.631zm10.789-3.087l1.2.02c.914.02 1.132.239 1.172.524l.01.104c.01.135.03.161.077.161.04 0 .067-.037.067-.124 0-.104.027-.766.027-1.051 0-.057 0-.115-.047-.115-.077 0-.335.098-.945.098h-3.574c-.114 0-.475-.02-.753-.047-.258-.02-.352-.114-.419-.114-.037 0-.077.124-.094.181-.02.077-.211.9-.211.994 0 .058.02.088.047.088.037 0 .067-.02.097-.098.027-.067.057-.134.161-.295.154-.229.382-.296.971-.306l1.41-.02v4.042c0 .917.001 1.673-.046 2.072-.037.276-.087.488-.275.525-.087.02-.201.036-.285.036-.057 0-.077.03-.077.058 0 .057.047.077.151.077.288 0 .888-.03.934-.03.047 0 .65.03 1.173.03.104 0 .151-.03.151-.077 0-.027-.02-.058-.077-.058a4.8 4.8 0 01-.429-.036c-.285-.038-.342-.25-.372-.525-.047-.403-.047-1.155-.047-2.072v-4.042h.003zm8.653 4.76c0 1.022-.801 2.083-2.429 2.083-.221 0-1.192-.057-1.266-.057-.047 0-.65.03-.935.03-.103 0-.154-.02-.154-.077 0-.027.02-.057.077-.057.088 0 .201-.01.285-.037.154-.047.201-.134.258-.41.047-.248.067-1.021.067-2.19v-1.683c0-1.606-.01-2.01-.027-2.17-.03-.23-.087-.374-.402-.44a2.02 2.02 0 00-.325-.028c-.036 0-.077-.02-.077-.057 0-.057.047-.077.154-.077.429 0 1.029.03 1.076.03.227 0 .599-.03 1.038-.03 1.564 0 1.906.954 1.906 1.435 0 .782-.449 1.253-.894 1.72.703.218 1.648.897 1.648 2.015zm-3.337-2.187c0 .068.021.088.067.104.057.01.228.04.583.04.533 0 .667-.02.868-.248.201-.228.342-.574.342-.964 0-.793-.352-1.643-1.287-1.643-.104 0-.305.01-.459.047-.087.02-.114.047-.114.104v2.56zm2.516 2.607c0-.574-.191-1.424-.924-1.931-.372-.249-.677-.29-1.019-.29-.562 0-.573.01-.573.078v2.325c0 .715.037.89.335 1.031.258.124.667.145.838.145.516 0 1.343-.276 1.343-1.358zm9.349-2.14c0 2.14-1.504 3.91-3.802 3.91-2.609 0-3.698-2.035-3.698-3.755 0-1.549 1.126-3.736 3.755-3.736 2.144-.003 3.745 1.354 3.745 3.581zm-.914.266c0-2.295-1.39-3.525-2.898-3.525-1.591 0-2.783 1.052-2.783 3.145 0 2.227 1.333 3.662 3.048 3.662.857-.003 2.633-.497 2.633-3.282zm6.317.739c0 .917 0 1.673-.047 2.073-.036.275-.083.487-.274.524-.087.02-.201.037-.285.037-.057 0-.077.03-.077.057 0 .057.047.077.154.077.285 0 .838-.03.915-.03.077 0 .629.03 1.095.03.104 0 .151-.03.151-.077 0-.027-.017-.057-.077-.057-.087 0-.238-.02-.372-.037-.285-.037-.342-.249-.372-.524-.067-.551-.047-1.099-.047-2.073v-.938h.047c.459.565 2.479 2.752 2.908 3.105.408.326.646.534 1.152.584.211.02.392.02.656.02h.486c.161 0 .211-.03.211-.077 0-.037-.057-.057-.124-.057s-.341-.02-.593-.124c-.455-.192-.619-.346-1.42-1.089-.392-.362-2.372-2.419-2.619-2.694.201-.239 1.859-1.865 2.096-2.093.429-.41.64-.649 1.029-.823.191-.088.388-.135.532-.135.077 0 .098-.02.098-.067s-.041-.067-.144-.067c-.238 0-.868.03-.915.03-.228 0-.522-.03-.713-.03-.067 0-.114.02-.114.067 0 .037.037.057.087.077.077.027.124.084.124.202 0 .161-.248.41-.516.689-.345.373-2.067 2.13-2.231 2.311h-.04v-.574c0-1.492 0-1.757.02-2.066.02-.333.097-.498.352-.545.113-.017.17-.027.237-.027.037 0 .077-.02.077-.057 0-.057-.046-.077-.154-.077-.284 0-.837.03-.924.03-.057 0-.62-.03-1.045-.03-.104 0-.154.02-.154.077 0 .037.036.057.077.057.087 0 .248.01.325.027.314.067.392.222.408.544.02.306.02.575.02 2.067v1.683zm9.983 2.036c-.258.668-.466 1.129-.935 1.129-.372 0-.65-.44-.65-.948 0-.144 0-.181-.067-.181-.02 0-.047 0-.067.094-.047.306-.067.87-.057 1.196 0 .114.047.181.144.238.181.105.506.162.657.162.506 0 .961-.497 1.296-1.32l2.335-5.715c.268-.659.429-.813.563-.897.181-.115.392-.115.459-.115.077 0 .113-.02.113-.067.011-.047-.046-.067-.154-.067-.274 0-.686.03-.743.03-.114 0-.553-.03-.935-.03-.154 0-.211.02-.221.077 0 .047.047.057.107.057.104 0 .248 0 .362.037.097.047.114.145.114.219l-.144.45c-.248.756-1.296 3.487-1.829 4.824l-2.144-4.559c-.154-.326-.238-.621-.238-.736 0-.067.017-.144.124-.191.087-.037.258-.047.362-.047.067 0 .094-.02.094-.067s-.087-.067-.258-.067c-.362 0-.791.03-.888.03-.114 0-.656-.03-1.115-.03-.151 0-.248.01-.248.067 0 .037.02.067.077.067.057 0 .218 0 .362.037.331.097.428.218.686.736l2.838 5.587zm5.108-2.496l.837-2.58c.047-.145.094-.145.144 0l.905 2.58.171.467.887 2.351c.057.155 0 .239-.057.259-.036.01-.067.03-.067.067 0 .057.104.057.285.067.657.02 1.353.02 1.497.02.104 0 .191-.02.191-.077 0-.047-.036-.057-.093-.057-.098 0-.238-.01-.382-.057-.201-.057-.479-.208-.821-1.062-.583-1.454-2.077-5.399-2.221-5.765-.114-.295-.154-.342-.208-.342-.056 0-.097.057-.211.372l-2.163 5.937c-.171.477-.362.84-.801.897-.077.01-.208.02-.278.02-.047 0-.084.02-.084.057 0 .057.057.078.181.078.446 0 .971-.03 1.075-.03.104 0 .513.03.744.03.087 0 .144-.02.144-.078 0-.037-.027-.057-.094-.057h-.097c-.161 0-.362-.087-.362-.279 0-.171.047-.4.134-.638l.744-2.18zm10.253 1.175c0 1.022-.8 2.083-2.428 2.083-.218 0-1.193-.057-1.27-.057-.047 0-.646.03-.934.03-.104 0-.151-.02-.151-.077 0-.027.017-.057.077-.057a1.6 1.6 0 00.285-.037c.191-.037.238-.248.274-.524.047-.403.047-1.156.047-2.073v-1.683l-.02-2.066c-.01-.323-.161-.487-.372-.534a1.315 1.315 0 00-.294-.037c-.041 0-.077-.02-.077-.057 0-.058.047-.078.154-.078.315 0 .914.03.961.03.047 0 .65-.03.935-.03.104 0 .154.02.154.078 0 .037-.037.057-.077.057-.067 0-.124.01-.238.027-.258.047-.332.211-.352.544l-.01 2.274c0 .068.02.088.067.104.057.01.228.04.583.04 1.008-.003 2.686.283 2.686 2.043zm-.82.42c0-.574-.191-1.424-.925-1.931-.542-.373-.867-.28-1.457-.28-.104 0-.134.078-.134.145v.47c0 .736 0 1.922.01 2.063.027.467.027.602.322.746.258.124.666.145.837.145.519 0 1.347-.276 1.347-1.358zm4.629-5.18l1.203.02c.914.02 1.132.239 1.172.524l.01.104c.01.135.027.161.077.161.037 0 .067-.037.067-.124 0-.104.027-.766.027-1.051 0-.057 0-.115-.047-.115-.077 0-.335.098-.945.098h-3.574c-.114 0-.475-.02-.753-.047-.258-.02-.352-.114-.419-.114-.037 0-.077.124-.097.181-.02.077-.208.9-.208.994 0 .058.02.088.047.088.04 0 .067-.02.097-.098.027-.067.057-.134.161-.295.154-.229.382-.296.971-.306l1.411-.02v4.042c0 .917 0 1.673-.047 2.072-.037.276-.084.488-.275.525-.087.02-.201.036-.288.036-.057 0-.077.03-.077.058 0 .057.047.077.151.077.288 0 .887-.03.934-.03.047 0 .647.03 1.173.03.103 0 .154-.03.154-.077 0-.027-.02-.058-.077-.058a4.8 4.8 0 01-.429-.036c-.285-.038-.342-.25-.372-.525-.047-.403-.047-1.155-.047-2.072v-4.042zm7.038 6.08c-.258.67-.466 1.13-.935 1.13-.371 0-.646-.44-.646-.948 0-.144 0-.181-.067-.181-.02 0-.047 0-.067.094-.047.306-.067.87-.057 1.196 0 .114.047.181.144.238.181.105.506.162.656.162.506 0 .965-.497 1.297-1.32l2.335-5.715c.264-.659.428-.813.562-.897.181-.115.392-.115.459-.115.077 0 .114-.02.114-.067.01-.047-.047-.067-.154-.067-.275 0-.687.03-.744.03-.113 0-.552-.03-.934-.03-.154 0-.208.02-.218.077 0 .047.047.057.104.057.104 0 .248 0 .362.037.097.047.114.145.114.219l-.144.45c-.248.756-1.297 3.487-1.829 4.824l-2.144-4.559c-.154-.326-.238-.621-.238-.736 0-.067.017-.144.124-.191.084-.037.258-.047.362-.047.067 0 .097-.02.097-.067s-.087-.067-.258-.067c-.362 0-.791.03-.884.03-.114 0-.657-.03-1.116-.03-.154 0-.248.01-.248.067 0 .037.02.067.077.067.057 0 .221 0 .362.037.335.097.429.218.687.736l2.827 5.587zm5.262-2.035c0 .917 0 1.673-.047 2.073-.036.275-.087.487-.278.524-.083.02-.201.037-.284.037-.057 0-.077.03-.077.057 0 .057.047.077.154.077.284 0 .884-.03.914-.03.047 0 .65.03 1.173.03.103 0 .154-.03.154-.077 0-.027-.02-.057-.077-.057a4.76 4.76 0 01-.429-.037c-.285-.037-.342-.249-.372-.524-.047-.403-.047-1.156-.047-2.073V12.83c0-.097.02-.161.077-.181a1.21 1.21 0 01.412-.057c.218 0 .801-.037 1.303.477.506.517.533 1.155.533 1.471 0 .88-.724 1.559-1.648 1.559-.201 0-.258.01-.258.087 0 .047.057.067.107.067.047.01.154.01.201.01 1.353 0 2.345-.917 2.345-2.274 0-.507-.268-.937-.479-1.135-.154-.145-.58-.545-1.772-.545-.439 0-.992.03-1.203.03-.077 0-.646-.03-1.075-.03-.104 0-.151.02-.151.078 0 .037.037.057.077.057.084 0 .248.01.322.027.315.067.392.221.409.544.02.306.02.574.02 2.066v1.68h-.004zm10.217.715c0 1.022-.801 2.083-2.429 2.083-.217 0-1.189-.057-1.266-.057-.047 0-.646.03-.934.03-.104 0-.154-.02-.154-.077 0-.027.02-.057.077-.057.087 0 .201-.02.284-.037.191-.037.238-.248.275-.524.047-.403.047-1.156.047-2.073v-1.683c0-1.492 0-1.461-.02-2.066-.007-.323-.161-.487-.372-.534a1.33 1.33 0 00-.295-.037c-.037 0-.077-.02-.077-.057 0-.058.047-.078.154-.078.315 0 .915.03.962.03.047 0 .646-.03.934-.03.104 0 .151.02.151.078 0 .037-.037.057-.077.057-.067 0-.124.01-.238.027-.258.047-.335.211-.352.544l-.01 2.274c0 .068.017.088.067.104.057.01.228.04.583.04h.305c1.296-.003 2.385.743 2.385 2.043zm-.821.42c0-.87-.485-2.15-1.973-2.15-.485 0-.552.088-.542.336v.222c0 .736 0 1.922.01 2.063.03.467.03.601.325.746.258.124.666.144.837.144.516-.003 1.343-.279 1.343-1.36zm3.126-2.818c0-1.492 0-1.757.02-2.066.02-.333.097-.498.351-.545.114-.017.171-.027.238-.027.037 0 .077-.02.077-.057 0-.057-.047-.077-.154-.077-.288 0-.884.03-.934.03-.047 0-.647-.03-.962-.03-.104 0-.15.02-.15.077 0 .037.036.057.077.057.067 0 .191.01.294.037.208.047.305.212.322.534.02.306.02.575.02 2.067v1.683c0 .917 0 1.673-.047 2.073-.037.275-.087.487-.278.524-.084.02-.197.037-.285.037-.057 0-.077.03-.077.057 0 .057.047.077.154.077.285 0 .885-.03.935-.03.047 0 .647.03 1.172.03.104 0 .155-.03.155-.077 0-.027-.021-.057-.078-.057-.087 0-.294-.02-.428-.037-.288-.037-.345-.249-.372-.524-.047-.403-.047-1.156-.047-2.073v-1.683h-.003zM42.836 28.906c0 .917 0 1.673-.046 2.076-.037.276-.087.487-.279.528-.083.02-.2.037-.284.037-.057 0-.077.03-.077.057 0 .057.047.077.154.077.285 0 .887-.03.914-.03.047 0 .65.03 1.173.03.104 0 .154-.03.154-.077 0-.027-.02-.057-.077-.057-.084 0-.295-.017-.429-.037-.285-.04-.345-.249-.372-.528-.047-.403-.047-1.155-.047-2.076v-3.93c0-.095.02-.162.077-.182.087-.037.248-.057.409-.057.221 0 .8-.037 1.306.477.506.517.533 1.159.533 1.475 0 .88-.724 1.558-1.648 1.558-.201 0-.258.01-.258.088 0 .047.057.067.104.067.047.01.154.01.2.01 1.354 0 2.346-.917 2.346-2.278A1.66 1.66 0 0046.213 25c-.154-.145-.583-.545-1.772-.545-.439 0-.992.03-1.2.03-.076 0-.65-.03-1.078-.03-.104 0-.154.02-.154.078 0 .037.04.057.077.057.084 0 .248.01.325.03.315.067.392.218.409.544.02.306.02.575.02 2.067v1.676h-.004zm12.535-1.005c0 2.144-1.507 3.911-3.805 3.911-2.613 0-3.698-2.036-3.698-3.76 0-1.548 1.125-3.735 3.755-3.735 2.147 0 3.748 1.357 3.748 3.584zm-.914.266c0-2.295-1.39-3.528-2.898-3.528-1.59 0-2.783 1.052-2.783 3.145 0 2.227 1.333 3.662 3.051 3.662.854.003 2.63-.497 2.63-3.28zm2.401-.219c0 2.211 1.394 3.864 4.302 3.864.61 0 1.333-.067 1.715-.218.17-.078.19-.098.248-.28.093-.325.21-1.158.21-1.222 0-.077-.02-.144-.066-.144-.057 0-.078.036-.098.144-.03.171-.154.591-.351.803-.382.393-.945.48-1.658.48-2.04 0-3.444-1.673-3.444-3.5 0-1.694.6-3.192 3.052-3.192 1.192 0 2.308.4 2.308 1.522 0 .134.01.201.077.201.077 0 .097-.144.097-.601 0-.558.067-1.015.067-1.119 0-.057-.017-.104-.124-.104-.362 0-1.22-.259-2.355-.259-3.035-.006-3.98 2.097-3.98 3.625zm7.671 0c0 2.211 1.39 3.864 4.298 3.864.61 0 1.337-.067 1.715-.218.171-.078.191-.098.248-.28.094-.325.211-1.158.211-1.222 0-.077-.02-.144-.067-.144-.057 0-.077.036-.094.144-.026.171-.154.591-.352.803-.381.393-.944.48-1.658.48-2.04 0-3.44-1.673-3.44-3.5 0-1.694.6-3.192 3.052-3.192 1.192 0 2.308.4 2.308 1.522 0 .134.01.201.077.201.077 0 .094-.144.094-.601 0-.558.067-1.015.067-1.119 0-.057-.02-.104-.124-.104-.362 0-1.22-.259-2.355-.259-3.035-.006-3.98 2.097-3.98 3.625zm8.76 3.673c-.047.315.104.352.228.154l.114-.154.79-1.022c1.183-1.552 2.432-3.05 3.688-4.522.087-.104.134-.047.134.067v2.762c0 .917 0 1.673-.047 2.076-.037.276-.087.487-.274.528-.087.02-.201.037-.285.037-.057 0-.077.03-.077.057 0 .057.047.077.154.077.285 0 .888-.03.934-.03.047 0 .647.03 1.173.03.104 0 .154-.03.154-.077 0-.027-.02-.057-.077-.057-.087 0-.295-.017-.429-.037-.284-.04-.341-.249-.372-.528-.046-.403-.046-1.155-.046-2.076v-4.32c.046-.316-.104-.353-.228-.152a132.714 132.714 0 01-4.643 5.708c-.037.047-.087.04-.087-.037 0-3.154 0-4.636.02-4.945.02-.336.097-.497.352-.544.114-.02.17-.03.237-.03.037 0 .078-.02.078-.058 0-.057-.047-.077-.151-.077-.285 0-.888.03-.935.03-.047 0-.65-.03-1.078-.03-.104 0-.154.02-.154.077 0 .037.036.058.077.058.083 0 .248.01.325.03.314.067.391.218.408.544.02.306 0 .575.02 2.066v4.395h-.003zm9.151 0c-.046.315.104.352.228.154l.114-.154c.285-.363.543-.71.79-1.022 1.183-1.552 2.432-3.05 3.689-4.522.087-.104.134-.047.134.067v2.762c0 .917 0 1.673-.047 2.076-.037.276-.087.487-.275.528-.087.02-.2.037-.288.037-.057 0-.077.03-.077.057 0 .057.047.077.154.077.285 0 .888-.03.935-.03.047 0 .65.03 1.172.03.104 0 .154-.03.154-.077 0-.027-.017-.057-.077-.057-.087 0-.295-.017-.429-.037-.284-.04-.341-.249-.371-.528-.047-.403-.047-1.155-.047-2.076v-4.32c.047-.316-.104-.353-.228-.152a130.09 130.09 0 01-4.643 5.708c-.037.047-.087.04-.087-.037 0-3.154 0-4.636.02-4.945.02-.336.097-.497.352-.544.114-.02.17-.03.238-.03.037 0 .077-.02.077-.058 0-.057-.047-.077-.151-.077-.288 0-.888.03-.935.03-.046 0-.646-.03-1.075-.03-.104 0-.154.02-.154.077 0 .037.04.058.077.058.084 0 .248.01.325.03.315.067.392.218.409.544.02.306 0 .575.02 2.066v4.395h-.004zm8.063-3.672c0 2.21 1.394 3.863 4.298 3.863.61 0 1.333-.067 1.715-.218.17-.078.19-.098.248-.28.097-.325.21-1.158.21-1.222 0-.077-.02-.144-.066-.144-.057 0-.077.036-.094.144-.03.171-.154.591-.352.803-.382.393-.944.48-1.658.48-2.04 0-3.44-1.673-3.44-3.5 0-1.694.6-3.192 3.052-3.192 1.192 0 2.308.4 2.308 1.522 0 .134.01.201.077.201.077 0 .097-.144.097-.601 0-.558.067-1.015.067-1.119 0-.057-.017-.104-.124-.104-.362 0-1.22-.259-2.355-.259-3.038-.006-3.983 2.097-3.983 3.625zm8.763.957c0 .917 0 1.673-.047 2.076-.04.276-.087.487-.278.528-.084.02-.2.037-.285.037-.056 0-.077.03-.077.057 0 .057.047.077.151.077.285 0 .838-.03.915-.03.077 0 .629.03 1.098.03.104 0 .154-.03.154-.077 0-.027-.02-.057-.077-.057-.087 0-.237-.017-.371-.037-.285-.04-.345-.249-.372-.528-.05-.403-.05-1.155-.05-2.076v-.937h.05c.455.564 2.479 2.755 2.907 3.107.409.326.647.538 1.153.585.207.017.388.017.656.017h.486c.161 0 .208-.03.208-.078 0-.037-.057-.057-.124-.057s-.345-.017-.59-.124c-.459-.188-.62-.343-1.42-1.088-.389-.363-2.375-2.42-2.623-2.695.201-.238 1.859-1.865 2.097-2.093.429-.41.64-.652 1.032-.823.187-.084.388-.134.532-.134.077 0 .097-.02.097-.068 0-.047-.036-.067-.144-.067-.238 0-.867.03-.914.03-.231 0-.526-.03-.717-.03-.067 0-.114.02-.114.067 0 .04.04.057.087.078.077.03.124.087.124.201 0 .161-.248.413-.516.689-.345.373-2.07 2.13-2.231 2.311h-.036v-.574c0-1.492 0-1.757.02-2.066.016-.336.097-.498.351-.545.114-.02.171-.03.238-.03.037 0 .077-.02.077-.057 0-.057-.047-.077-.154-.077-.285 0-.837.03-.924.03-.057 0-.62-.03-1.049-.03-.107 0-.154.02-.154.077 0 .037.037.057.077.057.087 0 .248.01.325.03.315.068.392.219.409.545.02.305.02.574.02 2.066v1.683h.003zm13.58-1.005c0 2.144-1.507 3.911-3.805 3.911-2.613 0-3.698-2.036-3.698-3.76 0-1.548 1.125-3.735 3.755-3.735 2.147 0 3.748 1.357 3.748 3.584zm-.915.266c0-2.295-1.39-3.528-2.897-3.528-1.591 0-2.784 1.052-2.784 3.145 0 2.227 1.337 3.662 3.052 3.662.857.003 2.629-.497 2.629-3.28zm2.955 3.454c-.047.315.104.352.228.154l.114-.154c.284-.363.542-.71.79-1.022 1.183-1.552 2.432-3.05 3.688-4.522.087-.104.134-.047.134.067v2.762c0 .917 0 1.673-.047 2.076-.04.276-.087.487-.278.528-.087.02-.201.037-.284.037-.057 0-.077.03-.077.057 0 .057.046.077.154.077.284 0 .887-.03.934-.03.047 0 .65.03 1.173.03.107 0 .154-.03.154-.077 0-.027-.017-.057-.077-.057-.087 0-.295-.017-.429-.037-.288-.04-.345-.249-.372-.528-.047-.403-.047-1.155-.047-2.076v-4.32c.047-.316-.104-.353-.228-.152a130.448 130.448 0 01-4.642 5.708c-.041.047-.087.04-.087-.037 0-3.154 0-4.636.016-4.945.02-.336.097-.497.352-.544.114-.02.171-.03.238-.03.037 0 .077-.02.077-.058 0-.057-.047-.077-.154-.077-.285 0-.888.03-.935.03-.047 0-.65-.03-1.078-.03-.104 0-.154.02-.154.077 0 .037.04.058.077.058.087 0 .247.01.324.03.315.067.389.218.409.544.02.306 0 .575.02 2.066v4.395h.007zm15.546-.68l-.02.031c.04.346-.017.756.372.813.134.02.345.04.429.04.057 0 .077.027.077.058 0 .047-.047.077-.154.077-.523 0-1.126-.03-1.173-.03-.047 0-.65.03-.934.03-.104 0-.151-.02-.151-.077 0-.03.02-.057.077-.057.087 0 .201-.02.285-.04.288-.068.237-.478.304-.814l-.02-.03c-2.261-.161-3.299-1.636-3.299-2.943 0-1.176 1.001-2.812 3.279-2.994l.02-.03c-.03-.275-.114-.574-.305-.621a1.162 1.162 0 00-.294-.037c-.037 0-.077-.02-.077-.057 0-.058.047-.078.154-.078.315 0 .914.03.964.03.051 0 .65-.03.935-.03.104 0 .154.02.154.078 0 .04-.037.057-.077.057-.067 0-.124.01-.238.03-.238.047-.305.343-.331.631l.02.03c1.879.145 3.229 1.204 3.229 2.83-.003 1.592-1.273 2.892-3.226 3.104zm-.868-5.307l-.02-.316c.01-.067-.04-.067-.077-.057-1.363.171-2.391 1.082-2.391 2.62 0 1.56 1.038 2.497 2.375 2.772.047.02.097 0 .097-.084.02-.43.02-.974.02-1.666v-3.269h-.004zm.858 5.04c.734-.021 2.382-.585 2.382-2.601 0-1.502-.972-2.47-2.137-2.745-.077-.02-.144-.037-.191-.02-.067.03-.098.047-.104.289l-.01.161v3.145c0 .715-.01 1.3.02 1.73.003.02.02.04.04.04zm6.301-5.756c0-.067.02-.087.057-.087.191 0 1.048.03 1.105.03.563 0 .791.191.848.316.057.124.087.285.087.363 0 .067.02.104.067.104s.067-.047.077-.098c.02-.114.04-.534.047-.628.03-.269.077-.383.077-.45 0-.047-.017-.104-.057-.104-.037 0-.077.037-.134.057-.04.01-.265.027-.419.037-.154.01-1.125.02-2.157.02-.047 0-.647-.03-1.075-.03-.104 0-.151.02-.151.077 0 .037.037.057.077.057.084 0 .248.01.325.03.315.068.372.209.398.44.021.162.027.565.027 2.17v1.684c0 1.166-.016 1.942-.067 2.19-.057.28-.104.363-.258.414a.944.944 0 01-.288.037c-.057 0-.077.03-.077.057 0 .057.047.077.151.077.211 0 .687-.03.935-.03.278 0 .917.057 2.354.057.372 0 .449 0 .516-.249a9.59 9.59 0 00.124-.927c0-.067 0-.144-.057-.144-.047 0-.067.036-.083.144-.067.39-.181.581-.429.689-.248.104-.667.104-.915.104-.934 0-1.105-.155-1.105-.783v-2.476c0-.037.02-.067.067-.067.161 0 1.105.02 1.363.047.372.037.459.201.496.336.037.124.037.218.037.316 0 .047.02.087.067.087.057 0 .067-.077.067-.181 0-.47.114-1.11.114-1.15 0-.056-.017-.077-.047-.077-.04 0-.077.047-.144.125-.087.097-.218.114-.449.134-.218.02-1.39.02-1.514.02-.047 0-.057-.027-.057-.097v-2.64zm11.61 6.34c-.057.295-.201 1.004-.221 1.108-.017.088-.037.125-.094.125-.047 0-.077-.027-.067-.161v-.105c0-.295-.03-.594-.82-.594l-1.448-.01h-2.555l-1.638.01c-.647.01-.714.114-.781.346-.04.161-.02.326-.02.42 0 .077-.02.097-.057.097-.03 0-.057-.027-.077-.087-.047-.094-.191-1.032-.201-1.109 0-.057-.01-.181.03-.181.077 0 .228.124.486.114.506-.01.677-.249.837-.672l2.335-5.967c.114-.316.164-.373.218-.373.057 0 .097.047.228.343.154.363 1.725 4.32 2.328 5.795.103.219.227.45.378.642a.85.85 0 00.593.222c.295-.02.459-.078.516-.078.05 0 .04.058.03.115zm-2.04-.03c0-.01-.01-.02-.01-.03l-2.117-5.42c-.047-.144-.154-.134-.201.01l-1.658 4.77c-.084.24-.134.471-.134.643v.03c1.042.064 2.469.054 4.12-.004zm4.586-6.31c0-.067.017-.087.057-.087.191 0 1.048.03 1.105.03.563 0 .791.191.851.316.057.124.084.285.084.363 0 .067.02.104.067.104s.067-.047.077-.098c.02-.114.04-.534.047-.628.027-.269.077-.383.077-.45 0-.047-.017-.104-.057-.104-.037 0-.077.037-.134.057-.037.01-.265.027-.419.037-.154.01-1.125.02-2.154.02-.047 0-.65-.03-1.078-.03-.104 0-.154.02-.154.077 0 .037.04.057.077.057.087 0 .247.01.325.03.314.068.371.209.398.44.02.162.03.565.03 2.17v1.684c0 1.166-.02 1.942-.067 2.19-.057.28-.104.363-.258.414a.934.934 0 01-.284.037c-.057 0-.077.03-.077.057 0 .057.046.077.154.077.211 0 .686-.03.934-.03.278 0 .915.057 2.355.057.372 0 .449 0 .516-.249a9.59 9.59 0 00.124-.927c0-.067 0-.144-.057-.144-.047 0-.067.036-.087.144-.067.39-.181.581-.429.689-.248.104-.666.104-.918.104-.934 0-1.105-.155-1.105-.783v-2.476c0-.037.017-.067.067-.067.164 0 1.105.02 1.363.047.372.037.459.201.496.336.037.124.037.218.037.316 0 .047.02.087.067.087.057 0 .067-.077.067-.181 0-.47.114-1.11.114-1.15 0-.056-.017-.077-.047-.077-.04 0-.077.047-.144.125-.087.097-.221.114-.449.134-.218.02-1.39.02-1.514.02-.047 0-.057-.027-.057-.097v-2.64zm5.547 3.988c0 .917 0 1.673-.047 2.076-.037.276-.084.487-.275.528-.087.02-.201.037-.284.037-.057 0-.077.03-.077.057 0 .057.047.077.154.077.284 0 .884-.03.914-.03.047 0 .65.03 1.173.03.104 0 .15-.03.15-.077 0-.027-.02-.057-.077-.057a3.85 3.85 0 01-.428-.037c-.288-.04-.345-.249-.372-.528-.047-.403-.047-1.155-.047-2.076v-3.93c0-.095.02-.162.077-.182.087-.037.248-.057.409-.057.221 0 .8-.037 1.306.477.506.517.536 1.159.536 1.475 0 .88-.724 1.558-1.648 1.558-.201 0-.258.01-.258.088 0 .047.057.067.104.067.047.01.154.01.201.01 1.353 0 2.345-.917 2.345-2.278 0-.507-.268-.937-.476-1.135-.154-.145-.583-.545-1.772-.545-.439 0-.992.03-1.203.03-.077 0-.646-.03-1.075-.03-.104 0-.154.02-.154.078 0 .037.037.057.077.057.084 0 .248.01.322.03.318.067.392.218.412.544.016.306.016.575.016 2.067v1.676h-.003zm11.161 2.694c0 .057-.087.078-.191.078-.144 0-.837 0-1.497-.017-.181-.01-.285-.01-.285-.067 0-.04.041-.068.067-.068.02 0 .077-.046.077-.134 0-.027 0-.087-.02-.124l-.884-2.352c-.02-.037-.037-.057-.087-.057h-2.05c-.047 0-.077.027-.094.077l-.573 1.694a2.066 2.066 0 00-.134.641c0 .192.201.279.362.279h.097c.067 0 .094.02.094.057 0 .057-.057.077-.141.077-.231 0-.64-.03-.743-.03-.104 0-.63.03-1.076.03-.124 0-.181-.016-.181-.077 0-.037.041-.057.088-.057.067 0 .201-.01.278-.017.438-.06.629-.423.8-.9l2.164-5.937c.114-.316.151-.373.208-.373.057 0 .094.047.211.343.144.363 1.641 4.31 2.221 5.765.345.85.619 1.005.82 1.062.144.05.288.057.382.057.051-.007.087.003.087.05zm-2.907-3.154l-.905-2.58c-.03-.078-.047-.105-.077-.105-.02 0-.047.04-.067.105l-.84 2.58c-.021.047 0 .067.026.067h1.823c.05 0 .05-.027.04-.067zm9.178 2.533c-.017.134-.03.248-.067.336a33.836 33.836 0 01-3.916 0 .853.853 0 01-.077-.336c-.047-.403-.047-1.156-.047-2.076 0-3.182 0-3.44.017-3.75.02-.336.097-.497.352-.544.114-.02.174-.03.238-.03.04 0 .077-.02.077-.057 0-.057-.047-.078-.154-.078-.285 0-.888.03-.935.03-.047 0-.65-.03-1.075-.03-.104 0-.154.02-.154.078 0 .037.04.057.077.057.087 0 .248.01.325.03.314.067.388.218.408.544.02.306.02.575.02 2.066v1.684c0 .917 0 1.673-.047 2.076-.036.275-.083.487-.278.527-.087.02-.201.037-.284.037-.057 0-.077.03-.077.057 0 .057.047.078.154.078.284 0 .887-.03.934-.03.041 0 .402.02.811.03h3.47c.298-.01.64-.03.677-.03h.459c.774 0 .743.325.743.621v.104c-.01.135.021.161.067.161.057 0 .078-.04.098-.124.02-.104.15-.813.207-1.098.01-.058.024-.115-.027-.115-.056 0-.207.057-.495.078-.134.01-.647.18-.63-.595-.017-.43-.017-1.052-.017-1.777v-1.684c0-1.491 0-1.757.017-2.066.017-.336.094-.497.352-.544.114-.02.174-.03.238-.03.04 0 .077-.02.077-.057 0-.057-.047-.078-.154-.078-.289 0-.888.03-.935.03-.047 0-.65-.03-1.079-.03-.104 0-.154.02-.154.078 0 .037.04.057.077.057.087 0 .248.01.325.03.312.067.389.218.409.544.02.306.02.575.02 2.066v1.684c.003.92.003 1.676-.047 2.076zm4.241.642c-.047.315.107.352.228.154l.114-.154.79-1.022a105.65 105.65 0 013.691-4.522c.088-.104.134-.047.134.067v2.762c0 .917 0 1.673-.046 2.076-.041.276-.088.487-.278.528-.084.02-.201.037-.285.037-.057 0-.077.03-.077.057 0 .057.047.077.154.077.288 0 .884-.03.934-.03.047 0 .647.03 1.169.03.104 0 .155-.03.155-.077 0-.027-.021-.057-.077-.057-.084 0-.295-.017-.429-.037-.285-.04-.345-.249-.375-.528-.047-.403-.047-1.155-.047-2.076v-4.32c.047-.316-.104-.353-.228-.152a132.61 132.61 0 01-4.643 5.708c-.04.047-.087.04-.087-.037 0-3.154 0-4.636.02-4.945.02-.336.097-.497.355-.544.114-.02.171-.03.238-.03.04 0 .077-.02.077-.058 0-.057-.05-.077-.154-.077-.285 0-.884.03-.935.03-.046 0-.649-.03-1.075-.03-.107 0-.154.02-.154.077 0 .037.037.058.077.058.087 0 .248.01.322.03.315.067.392.218.412.544.016.306 0 .575.016 2.066v4.395h.004zm9.215 0c-.047.315.107.352.231.154l.114-.154.791-1.022c1.182-1.552 2.431-3.05 3.691-4.522.084-.104.131-.047.131.067v2.762c0 .917 0 1.673-.047 2.076-.037.276-.084.487-.275.528-.084.02-.201.037-.285.037-.057 0-.077.03-.077.057 0 .057.047.077.154.077.285 0 .888-.03.935-.03.047 0 .65.03 1.172.03.104 0 .154-.03.154-.077 0-.027-.02-.057-.077-.057-.087 0-.294-.017-.432-.037-.285-.04-.341-.249-.368-.528-.047-.403-.047-1.155-.047-2.076v-4.32c.047-.316-.107-.353-.231-.152a127.473 127.473 0 01-4.643 5.708c-.037.047-.084.04-.084-.037 0-3.154 0-4.636.017-4.945.02-.336.094-.497.352-.544.114-.02.174-.03.238-.03.04 0 .077-.02.077-.058 0-.057-.047-.077-.151-.077-.288 0-.888.03-.935.03-.047 0-.65-.03-1.078-.03-.104 0-.154.02-.154.077 0 .037.04.058.077.058.087 0 .247.01.325.03.314.067.391.218.408.544.017.306 0 .575.017 2.066v4.395zM87.046 22.83c.087-.124.114-.224.037-.258-.07-.03-.124.04-.264.185-.392.4-.801.48-.975.48-.107 0-.637.017-.707-.621-.027-.266.053-.45-.134-.45-.265 0-.469.413-.469.661 0 .357.372.73 1.125.733.53 0 1.096-.313 1.387-.73zm32.225 0c.087-.124.114-.224.037-.258-.071-.03-.124.04-.265.185-.392.4-.797.48-.975.48-.107 0-.636.017-.707-.621-.026-.266.054-.45-.134-.45-.264 0-.469.413-.469.661 0 .357.376.73 1.126.733.529 0 1.095-.313 1.387-.73zM9.885 21.498l.335-.715-.214-.098-.46.588.054.256.285-.03zm1.672.195l.013-.699-.241-.03-.171.665.154.209.245-.145zm13.533.145l.157-.212-.17-.665-.245.03.013.699.245.148zm1.704-.306l.058-.255-.46-.588-.21.097.328.716.284.03zm1.049-1.099l-.08-.252-.72-.299-.108.222.65.447.258-.118zM8.495 17.165l.06.278.737.266.114-.212-.66-.413-.251.08zm.667 1.521l-.774-.1-.198.178.17.228.785-.06.017-.246zm-.483 1.495l-.08.252.258.115.65-.447-.104-.222-.724.302zm19.21-2.738l.058-.279-.251-.08-.664.413.118.212.74-.266zm8.526.32s-.439-.229-.75-.283a4.286 4.286 0 00-.891-.067c.204-.077.422-.168.59-.272.96-.585 1.078-1.7 1.078-1.7s-.57-.057-.891-.054c-.54.007-.938.05-1.076.084a2.73 2.73 0 00.888-.611c.747-.73.63-1.791.63-1.791s-.271-.097-.704-.057c-.355.03-.479.07-.646.161.646-.729.734-1.179.804-1.666.107-.736-.15-1.263-.211-1.3 0 0-.308.063-.747.403-.482.37-1.156.994-1.156.994s.178-.205.375-.604c.838-1.714.74-3.065.52-3.468-.242-.443-.707-.47-.922-.144-.164.242-.64 1.277-1.031 2.016-.617 1.182-1.414 2.298-1.745 2.704-.181-.39-.359-.117-.359-.117s-.271.46-.576.967c-.285.477-.643.83-.858 1.028-.281-.336-.556-.457-.556-.457l-.083.088s-2 2.096-2.617 2.91c-.62.809-.154 1.202.295 1.864.446.662.255 1.43-.673 1.797-.797.316-1.357.027-1.585-.366.59-.245 1.183-.84 1.186-1.656 0-.138-.013-.28-.043-.427-.184-.894-.908-1.425-1.712-1.421-.278 0-.566.064-.844.191-.181.081-.251.148-.392.256l-.077.067c-.375-.689-.348-1.226.11-2.117a3.4 3.4 0 011.347-1.384l.191.155s0-.07.405-.26c.412-.187.838-.137 1.163.24.291.339.271.786.271.786s.271-.239.358-.531c.084-.29-.023-.524-.023-.524s.335.127.697.275c.335.135.931.35 1.46-.11.53-.464.426-1.113.426-1.113s-.292.46-.905.582c-.449.087-.934-.172-1.296-.326-.355-.152-.834-.222-.834-.222s.425-.363 1.166-.138c.542.165.61.376.61.376s.287-.211.461-.614c.188-.444.067-.837-.254-1.146-.318-.299-.955-.48-.955-.48s.107-.168-.11-.239c-.191-.064-.386-.114-.386-.114s.154-.518-.361-.75c-.838-.38-2.178.326-3.635.535-.985.138-1.4-.162-1.4-.162s.067.219.271.43c.372.383.643.508.643.508s-.291.05-.532.017a9.208 9.208 0 01-.663-.138s.134.222.392.41c.254.191.525.309.525.309s-.546.272-.988.41c-.445.137-1.196.15-1.196.15s.242.24.6.377c.358.138.512.155.512.155s-.304.393-.646 1.045c-.238.45-.61 1.313-.814 1.79a32.004 32.004 0 00-.81-1.79c-.342-.649-.65-1.045-.65-1.045s.154-.017.512-.155a1.88 1.88 0 00.596-.376s-.75-.017-1.192-.151c-.442-.138-.988-.41-.988-.41s.27-.121.525-.31c.262-.187.392-.41.392-.41s-.425.105-.663.139c-.238.033-.53-.017-.53-.017s.272-.128.644-.507c.204-.212.271-.43.271-.43s-.418.299-1.4.16c-1.457-.208-2.793-.913-3.638-.533-.512.231-.361.749-.361.749s-.195.054-.386.114c-.22.07-.11.239-.11.239s-.64.178-.955.48c-.325.309-.445.702-.254 1.146.17.403.459.614.459.614s.067-.211.61-.376c.736-.225 1.165.138 1.165.138s-.48.07-.838.222c-.358.154-.844.413-1.296.325-.616-.12-.904-.58-.904-.58s-.1.648.425 1.111c.53.46 1.126.246 1.46.111.362-.148.694-.275.694-.275s-.107.235-.02.524c.084.292.358.53.358.53s-.02-.446.272-.785c.325-.377.753-.43 1.162-.24.409.19.409.26.409.26l.187-.155s.854.427 1.347 1.384c.462.894.506 1.408.124 2.1-.01-.007-.027-.027-.037-.034a2.115 2.115 0 00-.48-.268 2.042 2.042 0 00-.847-.192c-.8-.003-1.527.528-1.708 1.418a1.903 1.903 0 00-.043.427c0 .856.569 1.438 1.189 1.66-.225.392-.78.681-1.585.362-.928-.366-1.119-1.135-.673-1.797.445-.662.911-1.052.291-1.865-.616-.813-2.612-2.91-2.612-2.91l-.088-.087s-.274.121-.559.457a4.719 4.719 0 01-.857-1.028l-.577-.967s-.177-.276-.361.117c-.332-.406-1.126-1.522-1.746-2.704-.388-.74-.867-1.774-1.031-2.016-.215-.326-.68-.3-.918.144C2 7.935 1.903 9.286 2.74 11c.193.4.37.605.37.605s-.672-.625-1.151-.994c-.443-.34-.75-.403-.75-.403-.061.037-.319.564-.212 1.3.07.487.154.937.804 1.666-.167-.09-.295-.13-.65-.161-.428-.04-.703.057-.703.057s-.114 1.062.633 1.794c.291.286.469.413.884.612-.134-.034-.536-.078-1.075-.084-.322-.007-.891.05-.891.05s.117 1.115 1.079 1.7c.164.1.385.195.586.272-.268-.003-.51 0-.888.067-.315.057-.75.282-.75.282s.385 1.012 1.363 1.368c.181.064.271.117.483.148-.094.013-.443.124-.858.319-.288.138-.61.423-.61.423s.5.92 1.42 1.089c.007 0 .081.013.151.03a4.264 4.264 0 00-.673.538c-.228.225-.459.655-.459.655s.774.81 1.89.678a2.192 2.192 0 00-.275.38c-.235.39-.305.897-.305.897s.844.457 1.789.155c-.054.097-.1.211-.141.346-.084.309-.097.94-.097.94s1.021.303 1.913-.35c-.064.132-.098.3-.121.521-.034.32.047.945.047.945s1.109.13 1.89-.682l.06-.068c-.01.088-.017.185-.014.286.013.32.184.927.184.927s1.116-.03 1.772-.947c.064-.084.107-.158.161-.255-.01.127.05.41.12.634.084.262.319.622.319.622s.918-.282 1.253-1.2c.15-.403.204-.923.21-1.4l.091.09s.302-.08.596-.386a8.764 8.764 0 00-.355 2.382c0 .205.01.413.027.625.04.467.067.689.181 1.041 0 0-.157.296-.318.498-.064.077-.308.319-.275.705.024.292.325.333.325.333s-.034.342.084.5c.12.158.284.225.365.246.077.02.264.063.264.063s.054.38.181.47c.158.118.54.23.543.233.097.033.268.157.382.211.177.084.429.047.667-.08.157-.088.184-.33.177-.39.077.034.09.037.16.067.252.1.446.212.456.255.118.195.191.686.241 1.028.027.148.01.353.111.562l.03.047c-.023.01-.047.016-.08.03a3.63 3.63 0 00-.901.46c-.322.232-.71.86-1.203.974-.432.101-.75-.097-.79-.366-.037-.269-.027-.406-.027-.406s-.593.349-.637.772c-.06.555.422.783.422.783s-.783.756-.539 1.411c.211.561.359.803.396 1.015.04.212-.058.35-.058.35s.396.046.486-.495c.06-.339.148-.5.225-.594.077-.098.083-.141.083-.141s-.033.487.08.853c.118.366.533.729 1.126.78.533.043 1.025-.263 1.025-.263s.45.608 1.072.692c.65.088 1.039-.057 1.246-.114 0 0 .171.31.325.504.077.1.211.252.379.39l.197.11s.235-.228.392-.42c.154-.19.372-.664.372-.664s.7.258 1.32.124c.613-.135 1.035-.561 1.035-.561s.382.403.975.366c.593-.037 1.021-.578 1.139-.944.117-.366.067-.83.067-.83s.04.03.137.118c.097.08.17.12.241.517.1.541.389.568.389.568s-.024-.276.084-.544c.083-.202.258-.427.385-.928.234-.9-.543-1.27-.543-1.27s.436-.241.399-.725c-.047-.625-.71-.844-.71-.844s.053.068.013.336c-.037.27-.302.545-.817.4-.278-.077-.774-.688-1.096-.917-.328-.232-.804-.444-.978-.52a.443.443 0 00-.07-.028.07.07 0 01.013-.02c.104-.205.087-.41.114-.56.044-.296.104-.706.194-.938.054-.141.255-.245.506-.343.07-.03.08-.03.161-.067-.007.06.02.302.18.39.239.127.487.164.664.08.11-.053.285-.178.382-.211.003-.004.385-.115.546-.232.127-.087.18-.47.18-.47s.189-.044.265-.064a.695.695 0 00.366-.246c.117-.158.083-.5.083-.5s.302-.04.325-.333c.034-.39-.21-.628-.278-.705a3.889 3.889 0 01-.318-.498c.11-.352.137-.574.18-1.041.018-.208.028-.42.028-.625a8.72 8.72 0 00-.355-2.382c.298.306.596.386.596.386s.037-.033.09-.09c.007.477.064.997.211 1.4.335.915 1.253 1.2 1.253 1.2s.238-.36.322-.621c.07-.226.13-.504.117-.635.057.097.1.17.164.255.657.92 1.772.947 1.772.947s.168-.608.181-.927c.003-.1 0-.198-.013-.285.02.023.043.043.063.067.78.813 1.89.682 1.89.682s.08-.625.046-.944c-.02-.222-.053-.39-.12-.521.894.652 1.913.35 1.913.35s-.017-.632-.098-.941a1.772 1.772 0 00-.137-.346c.938.302 1.785-.155 1.785-.155s-.073-.507-.304-.897a2.23 2.23 0 00-.275-.38c1.115.131 1.893-.678 1.893-.678s-.232-.43-.46-.655a4.258 4.258 0 00-.673-.538c.07-.017.144-.03.151-.03.921-.165 1.42-1.089 1.42-1.089s-.321-.285-.61-.423c-.411-.195-.763-.31-.853-.32.21-.026.301-.083.482-.147.995-.366 1.38-1.378 1.38-1.378zm-1.236-2.057c.439 0 .67.05.737.064-.389.467-.817.837-1.98 1.19-1.51.453-2.412.393-2.743.426.777-.514.971-.826.971-.826s-.013-.067-.295-.175c.262-.07.77-.198 1.15-.323.26-.087.421-.144.706-.268.117-.01.962-.088 1.454-.088zm-8.84 6.706c.047.195.238.588.355.803a1.462 1.462 0 01-.147.427 1.17 1.17 0 01-.265.322s-.456-.094-.713-.574c-.165-.316-.158-.686-.165-.897a6.17 6.17 0 00.242-.218c.147-.152.234-.4.234-.4s.148.114.389.184c.013.084.037.205.073.346 0-.003-.003-.003-.003-.003s-.003.007 0 .01zm.271-.238c.191.064.329.097.426.097.053-.047.154-.178.187-.215.124.118.195.289.855.696.016.077.02.302-.007.527-.03.262-.08.42-.08.42s-.433-.08-.788-.447c-.435-.447-.519-.863-.593-1.078zm.844-.33c.02-.033.047-.067.064-.104.157-.319.14-.608.14-.608s.768.477 1.424.652a2.8 2.8 0 01.124.454c.057.292.047.436.047.436s-.415-.027-.988-.282c-.566-.248-.693-.457-.81-.548zm1.253-.621c-.127-.05-.365-.165-.459-.205a1.33 1.33 0 00.54-.346s-.017-.098-.067-.158c.244.044.439.108.867.084.004.003.107.007.114.007.07.067.362.191.556.4.231.245.302.436.325.537-.445-.017-1.145-.034-1.876-.32zm.861-1.085c-.543-.014-.81-.067-1.085-.101-.06-.07-.14-.181-.251-.262.067-.047.25-.145.365-.282.382.017 1.222.037 1.912-.209.034-.013.064-.023.098-.037.097.04.22.095.375.168.308.142.465.32.526.4-.232.131-1.16.34-1.94.323zm.214-1.14c-.378.041-.753.055-.897.01 0 0 .067-.11.13-.285-.04-.124-.187-.265-.459-.483-.02-.017-.04-.03-.06-.047.268-.027.962-.111 1.598-.283.08.01.251.01.646.162.486.184.63.346.687.406-.264.124-.834.437-1.645.52zm.232-1.561c-.908.248-1.367.265-1.578.265.08-.094.2-.272.291-.551.325-.12 1.116-.43 1.689-.837.117 0 .294.007.562.03.45.041.66.172.76.24-.29.332-.97.648-1.724.853zm5.03-4.113c.41-.053.577-.003.63.01-.22.407-.797 1.079-2.08 1.784-1.209.662-1.926.924-2.227 1.025-.335-.067-.66-.067-.66-.067a3.85 3.85 0 00.566-.669c.446-.174 1.886-.762 2.988-1.854.014-.014.044-.034.06-.047.154-.057.503-.155.724-.182zm-4.377-.934s.556-.665 1.149-1.595c.516-.813 1.182-2.228 1.614-3.105.205-.416.627-.238.633.393.007.924-.696 2.43-1.286 3.178-1.172 1.486-1.725 1.822-2.18 2.127.006-.053.184-.48.07-.998zm1.933.138c.264-.259 1.313-1.048 1.973-1.653.281-.262.59-.393.59-.393.076.487-.208 1.15-.46 1.562-.365.602-.988 1.2-1.427 1.512-1.373.978-1.484.985-1.708 1.092-.03 0-.707-.259-1.44.01a.384.384 0 00.077-.134s1.32-.87 2.395-1.996zm-3.072.971c.345-.48.526-.833.606-.98.171-.324.335-.26.325.073-.01.595-.308 1.213-.697 1.71-.351.447-.69.648-.874.746.04-.108.134-.544-.027-.874.118-.094.416-.322.667-.675zm.362 1.461c.11-.026.294-.067.572-.114.446-.07.74.01.855.054-.241.225-.885.79-1.568 1.173-.623.352-1.085.547-1.303.634-.325-.14-.626-.16-.626-.16s.17-.179.489-.488c.308-.13.954-.39 1.58-1.099zm-5.926 5.611c1.132.222 1.926-.37 2.2-.84.285-.48.232-1.008-.247-1.676-.486-.682-.747-.837.55-2.265 1.299-1.43 1.795-1.82 1.795-1.82s.495.174.432.88c-.04.453-.81 1.226-1.039 1.471-.237.252-.442.457-.442.457s.325-.013.75.06c.305.051.473.175.473.175s-.1.437-.248.608l-.399.444s.332.124.573.356c.208.195.325.37.325.37s-.137.383-.372.574c-.23.192-.59.383-.59.383s.319.208.517.46c.14.182.177.353.177.353s-.21.165-.486.252a1.46 1.46 0 01-.368.06l-.003-.003v.003c-.114.007-.191-.003-.191-.003s.016.397-.09.635c-.115.252-.346.41-.346.41s-.452-.044-.653-.141c-.234-.118-.472-.323-.472-.323s-.208.407-.339.531c-.157.151-.328.225-.328.225s-.228-.097-.442-.225c-.124-.07-.318-.255-.318-.255l-.697.49s-.295-.107-.69-.806l-.02-.044c-.315-.658-.452-1.065-.52-1.333.393.252 1.153.47 1.508.537zm-.991-3.843c.927.02 1.678 1.115 1.165 2.066-.512.95-1.484.836-1.681.544-.201-.292-.138-.729.14-.927.278-.202.71.01.71.01l-.023-.034s-.412-.614-1.005-.077c-.144.131-.218.242-.241.5h-1.079c.007-.134.02-.157.044-.285.19-1.075 1.048-1.817 1.97-1.797zm-5.986.208a.387.387 0 11.529.36v1.511h-.298V17.29a.386.386 0 01-.232-.353zm.673-.659a.691.691 0 00-.53-.026.719.719 0 00-.465.49.722.722 0 00-.63 1.26v.444h-.251a2.944 2.944 0 00-.399-1.002c.118-.137.506-.621.694-1.233.117-.383.19-.709.234-1.092.067.084.138.185.205.286.15.232.264.484.264.484l.13.289.115-.3c0-.003.11-.298.187-.725.03-.165.05-.312.064-.433a3.591 3.591 0 01.677 1.313.769.769 0 00-.295.245zm-1.544 1.17a.387.387 0 11.535.356v1.004h-.294v-1.004a.384.384 0 01-.241-.356zm5.922 1.633l.033.426-7.657.014.013-.44h7.61zm-2.231-2.342c-.05-.202-.147-.4-.469-.524-.322-.121-.606.05-.606.05s-.054-.12-.215-.208a3.4 3.4 0 01.369-.88c.107-.182.22-.336.315-.454.013.12.033.269.063.433.077.427.185.723.188.726l.11.3.131-.29s.11-.252.265-.484c.067-.1.137-.201.2-.285.044.386.118.712.235 1.092.178.57.536 1.034.677 1.21a3.01 3.01 0 00-.419 1.024H20.4v-.44a.722.722 0 00.268-.558c.003-.406-.278-.76-.861-.712zm-.231.709a.386.386 0 11.54.356v1.004h-.296v-1a.388.388 0 01-.244-.36zm-.84-.548a.386.386 0 11.77 0c0 .168-.108.31-.258.366v1.542h-.295v-1.562a.377.377 0 01-.218-.346zm6.488-3.343s-.098-.255-.473-.49c-.375-.239-.546-.219-.546-.219s.215-.191.513-.053c.301.14.408.238.475.43.064.194.03.332.03.332zm.087-.974c.321.11.948.36 1.185.453.597.232 1.126-.084 1.126-.084s-.211.518-.928.404c-.486-.078-1.008-.333-1.233-.47-.355-.216-.653-.263-.653-.263s.295-.114.503-.04zm.546-1.986s.472.024.794.303c.321.279.452.49.365.81-.084.322-.242.396-.242.396s-.294-.269-.864-.29c-.295-.012-.975.055-1.28.36-.063.057-.113-.013-.07-.064.094-.107.175-.16.325-.372.228-.313.322-.447.526-.682.204-.239.446-.46.446-.46zm-5.203.121s.305.017.59-.017c.278-.03.573-.077.901-.077.325 0 .67-.107 1.236.118.57.228.888.343.888.343s.224-.185.378-.367c.151-.184.205-.386.205-.386s-.141.054-.302.02c-.16-.03-.613-.208-1.182-.12-.566.083-1.206.144-1.826.05-.623-.098-.747-.286-.747-.286s.298.084 1.363-.1c1.3-.226 2.653-.874 3.032-.354.114.155.044.397-.03.578-.074.185-.375.736-.677 1.052a6.962 6.962 0 01-.613.571c-.127.084-.556.36-.857.46a6.089 6.089 0 01-.865.249l.901-1.478-.3.067c-.008 0-.597.134-1.183.437-.175.09-.41.255-.587.386.024-.144.05-.302.074-.376.06-.195.154-.343.188-.383a.58.58 0 01.1-.081l.1-.054a4.121 4.121 0 01-.351-.08 1.69 1.69 0 01-.436-.172zm2.898-.238c.19.017.228.047.251.05a2.434 2.434 0 00-.027.135l-.217-.081c-.205-.074-.184-.084-.184-.084s-.027-.044.177-.02zm.56.302s.046-.017.083-.05a.71.71 0 00.114-.155l.164.03-.177.226-.185-.05zm-5.41 3.9c.123-.322.257-.617.391-.896.272-.39.57-.666.778-.837-.014.067-.034.141-.047.218-.05.242-.06.511-.06.693 0 .12.003.198.003.201l.027.457.22-.403s.205-.373.446-.655c.161-.188.328-.34.476-.447a3.53 3.53 0 00-.137.497c-.034.212-.044.42-.044.591 0 .276.023.467.027.474l.04.316.19-.255s.37-.49.62-.756c.232-.245.483-.45.68-.595.195-.141.332-.222.336-.225l-.134-.225a5.546 5.546 0 00-1.072.863c-.134.145-.299.346-.426.504v-.1c0-.162.01-.357.04-.552.024-.134.084-.342.148-.51.06-.171.11-.306.11-.306l.131-.33-.315.162a3.1 3.1 0 00-.874.722 4.73 4.73 0 00-.225.296c.01-.12.024-.252.047-.366.064-.31.128-.548.128-.551l.083-.31-.274.165a2.8 2.8 0 00-.409.306c.034-.054.064-.107.097-.158.191-.319.493-.645.493-.645s-.389-.127-.493-.127c-.11 0-.261-.044-.261-.044s.345-.098.673-.205a4.21 4.21 0 00.724-.346c-.014.034-.027.074-.04.114-.064.212-.131.73-.134.732l-.044.323.255-.202s.525-.416.803-.557c.275-.141.556-.245.77-.316.011-.003.024-.01.038-.014l-.871 1.428.281-.047c.004 0 .647-.077 1.21-.292l.13-.057c.48-.185.81-.48.82-.487.296-.232.59-.508.755-.76.334-.503.64-.93.64-.93s.08-.014.123.007c.044.023.107.063.107.063s-.204.195-.341.357c-.14.16-.486.655-.724.997-.254.37-.67.86-.898 1.012-.254.17-.432.305-.432.305l-.26.027s-.684.185-1.394 1.284c-.707 1.095-.603 1.995-.399 2.402.037.074.12.218.188.326-.064.057-.124.12-.188.184-.047-.06-.107-.134-.174-.235a3.172 3.172 0 01-.422-.84 5.56 5.56 0 01-.252-1.36l-.023-.32-.208.242a5.902 5.902 0 00-.422.565c-.05.074-.097.154-.137.225a5.61 5.61 0 01-.084-.376 6.127 6.127 0 01-.087-.713l-.017-.295-.207.208c-.004.007-.295.299-.553.73-.054.09-.107.177-.154.261.067-.205.134-.426.208-.611zm-.46 1.657a.386.386 0 01.141.746v1.723h-.298v-1.73a.387.387 0 01.157-.74zm-6.96-6.8c.382-.517 1.732.128 3.031.353 1.069.181 1.367.1 1.367.1s-.124.192-.743.286c-.624.098-1.26.034-1.83-.05-.569-.088-1.021.09-1.179.12-.16.034-.301-.02-.301-.02s.053.202.204.387c.148.181.375.366.375.366s.319-.114.888-.343c.57-.225.911-.117 1.236-.117.325 0 .623.047.901.077.288.03.59.017.59.017s-.181.11-.429.171a4.86 4.86 0 01-.352.08l.098.055c.036.027.08.06.103.08.037.04.128.188.184.383.02.074.05.229.074.377a4.982 4.982 0 00-.583-.387 5.387 5.387 0 00-1.182-.437l-.305-.067.901 1.479a5.98 5.98 0 01-.867-.25c-.298-.103-.727-.375-.855-.46a6.085 6.085 0 01-.616-.57c-.301-.313-.6-.867-.673-1.052-.08-.182-.148-.42-.037-.578zm1.816.96s.023.011-.181.085a3.43 3.43 0 01-.218.08s-.024-.127-.027-.134c.023-.003.06-.034.251-.05.205-.024.175.02.175.02zm-.738.283l-.184.05-.18-.225.167-.03s.023.054.114.155c.033.033.084.05.084.05zm-1.795 1.035c-.57.02-.868.289-.868.289s-.154-.074-.237-.397c-.087-.319.043-.53.365-.81.321-.281.794-.302.794-.302s.238.222.442.46c.2.24.298.37.526.683.15.211.228.265.321.372.047.05-.006.121-.07.064-.301-.305-.981-.37-1.273-.36zm.449 1.068c-.224.138-.744.393-1.233.47-.72.115-.928-.402-.928-.402s.526.315 1.123.083c.24-.094.867-.342 1.189-.453.204-.074.499.04.499.04s-.298.047-.65.262zm.71.182c-.375.235-.469.49-.469.49s-.037-.138.027-.33c.067-.19.174-.288.476-.43a.488.488 0 01.515.055s-.174-.024-.549.215zm3.514 3.628c.2-.406.305-1.307-.402-2.402-.71-1.095-1.393-1.283-1.393-1.283l-.262-.027s-.177-.135-.432-.306c-.228-.151-.64-.638-.898-1.011a19.563 19.563 0 00-.72-.998c-.14-.161-.345-.356-.345-.356s.064-.044.107-.064c.044-.02.12-.007.12-.007s.31.424.64.93c.168.253.463.532.758.76.01.007.335.303.817.487l.134.057c.56.215 1.203.29 1.21.293l.28.047-.87-1.428a4.827 4.827 0 01.804.33c.274.14.804.557.804.557l.254.201-.043-.322c0-.003-.07-.524-.134-.732a2.166 2.166 0 00-.04-.115c.15.088.472.266.723.346.332.108.677.205.677.205s-.151.044-.258.044c-.11 0-.496.127-.496.127s.302.326.496.646l.094.158c-.235-.202-.402-.303-.406-.306l-.274-.165.083.31c0 .003.064.241.128.55.026.118.037.245.047.366a4.302 4.302 0 00-.225-.295c-.402-.477-.868-.716-.878-.723l-.314-.16.13.328s.054.135.114.306c.06.171.124.38.144.51.03.196.04.39.04.552 0 .033 0 .07-.003.1-.127-.157-.288-.359-.425-.503a5.405 5.405 0 00-1.072-.864l-.134.225c.003.004.137.084.335.225.197.145.452.35.68.595.25.266.62.756.62.756l.19.255.044-.316c0-.003.023-.194.023-.473 0-.175-.01-.38-.043-.591a3.189 3.189 0 00-.138-.498c.144.108.319.259.476.447.238.279.446.655.446.655l.22.403.024-.457s.003-.08.003-.201c0-.181-.006-.45-.056-.689-.017-.077-.034-.151-.047-.218.21.171.505.45.777.836.134.28.264.575.392.897.07.185.14.407.197.619l-.154-.263c-.254-.43-.546-.722-.55-.729l-.207-.208-.017.296s-.016.302-.09.712a4.226 4.226 0 01-.084.376 5.077 5.077 0 00-.134-.225 5.185 5.185 0 00-.425-.564l-.204-.242-.024.32c-.04.523-.11.89-.251 1.36-.1.319-.271.621-.422.84a4.764 4.764 0 01-.188.255c-.053-.07-.114-.154-.164-.212.074-.12.157-.262.191-.329zm-2.908 2.1c-.515-.95.235-2.043 1.16-2.066.927-.02 1.781.722 1.972 1.794.024.127.024.154.034.289l-1.085.013c-.024-.255-.06-.403-.188-.554-.536-.635-1.126-.078-1.126-.078s-.137.219-.053.293c.084.074.241.044.241.044s.305-.229.583-.03a.584.584 0 01.14.836c-.2.295-1.168.41-1.678-.541zm-4.15-4.828s.496.39 1.792 1.821c1.3 1.431 1.039 1.582.55 2.264-.48.672-.53 1.196-.248 1.677.274.47 1.068 1.065 2.2.84.355-.07 1.12-.29 1.505-.541-.067.269-.208.675-.523 1.334l-.02.043c-.392.703-.69.807-.69.807l-.694-.49s-.197.184-.318.255c-.214.127-.442.225-.442.225s-.168-.074-.325-.226c-.13-.127-.338-.53-.338-.53s-.235.205-.47.322c-.2.098-.652.141-.652.141s-.232-.158-.345-.41c-.108-.238-.09-.635-.09-.635s-.078.007-.192.004l.003-.004s-.003 0-.003.004a1.473 1.473 0 01-.368-.06c-.275-.085-.486-.253-.486-.253s.033-.171.178-.352c.197-.252.515-.46.515-.46s-.355-.192-.59-.384c-.234-.191-.368-.574-.368-.574s.118-.175.325-.37a2 2 0 01.573-.356s-.251-.272-.399-.443c-.147-.172-.247-.608-.247-.608s.167-.125.469-.175c.428-.074.75-.06.75-.06s-.204-.206-.442-.457c-.231-.246-.999-1.019-1.039-1.472-.067-.699.43-.877.43-.877zM6.348 17.91c.636.172 1.33.256 1.598.282a.763.763 0 01-.064.047c-.271.219-.419.357-.459.484.064.175.134.286.134.286-.144.044-.523.03-.894-.01-.814-.084-1.38-.397-1.648-.52.06-.065.2-.223.69-.407.388-.152.559-.152.643-.162zm-1.645-1.327c.1-.067.312-.198.757-.238.268-.024.449-.03.566-.03.57.406 1.364.715 1.688.836.09.279.211.457.295.551-.207 0-.666-.017-1.578-.265-.757-.205-1.437-.521-1.728-.854zm1.23 2.701c.69.242 1.53.226 1.912.209.114.137.295.235.365.282-.114.08-.19.191-.251.262-.271.034-.543.087-1.085.1-.78.017-1.709-.19-1.94-.322.06-.08.215-.259.523-.4.154-.07.281-.127.378-.168l.097.037zm.924 1.31c.429.027.62-.04.867-.083a.386.386 0 00-.07.158s.191.225.536.346c-.094.043-.328.154-.459.205-.727.282-1.427.302-1.872.315.023-.1.093-.292.325-.537.194-.209.485-.333.556-.4.006.007.114 0 .117-.003zm.382 1.643a3.29 3.29 0 01.12-.453c.66-.175 1.424-.652 1.424-.652s-.013.29.14.608c.02.037.044.07.064.104-.117.095-.244.3-.81.551-.573.256-.988.283-.988.283s-.01-.148.05-.44zm1.125.511c.66-.406.73-.578.854-.695.03.037.131.168.188.215.097 0 .235-.03.425-.098-.073.215-.157.632-.59 1.079-.354.366-.786.447-.786.447s-.054-.162-.084-.42a2.136 2.136 0 01-.007-.528zm1.742-.336a.03.03 0 00.007-.01l-.003.003c.036-.137.06-.258.07-.346.241-.07.388-.184.388-.184s.088.248.238.4c.06.06.151.144.241.218-.006.212 0 .581-.167.897-.255.48-.71.574-.71.574s-.134-.097-.268-.322a1.27 1.27 0 01-.148-.427c.111-.215.299-.608.352-.803zM8.133 16.06c.318.31.49.487.49.487s-.302.02-.627.162a10.36 10.36 0 01-1.303-.635c-.684-.383-1.327-.948-1.568-1.173.114-.044.412-.124.854-.054.282.047.463.088.573.114.626.71 1.273.968 1.581 1.1zm-1.825-3.54c.08.147.257.5.603.98.254.353.549.581.666.675-.16.33-.067.766-.023.874a2.685 2.685 0 01-.875-.746c-.392-.497-.686-1.115-.696-1.71-.01-.333.157-.397.325-.074zm-3.93-4.436c.007-.631.43-.81.633-.393.433.877 1.1 2.292 1.615 3.105a17.73 17.73 0 001.149 1.595c-.114.518.064.941.067.998-.456-.309-1.008-.642-2.177-2.127-.59-.749-1.297-2.254-1.287-3.178zm-.64 3.965c-.25-.414-.532-1.075-.455-1.563 0 0 .305.132.59.394.66.604 1.705 1.39 1.97 1.652 1.071 1.123 2.39 2 2.39 2s.021.067.081.134c-.737-.269-1.41-.01-1.443-.01-.225-.108-.332-.114-1.706-1.092-.435-.316-1.058-.914-1.426-1.515zm-.97 1.29c.053-.017.22-.064.629-.01.218.027.566.124.72.184.013.014.044.034.06.048 1.102 1.088 2.54 1.68 2.988 1.854.134.198.315.43.566.669 0 0-.325 0-.656.067-.302-.1-1.022-.363-2.224-1.025-1.287-.709-1.86-1.38-2.084-1.787zM.525 15.77c.067-.013.298-.064.737-.064.496 0 1.336.074 1.447.088.285.124.449.181.71.268.379.125.888.252 1.146.323-.278.107-.295.175-.295.175s.194.316.975.826c-.335-.033-1.233.027-2.744-.427-1.159-.349-1.59-.722-1.976-1.189zm.054 2.14c.107-.033.308-.13.64-.195.438-.084.92-.06 1.182-.073.6.194 1.005.204 1.44.228.673.034 1.273-.003 1.668-.017 0 0-.258.034-.633.3-.194.137-.308.349-.308.349.007.033.127.124.178.164-.305.07-1.052.138-2.375-.044C1.34 18.479.81 18.088.58 17.91zm.324 2.16c.04-.05.309-.218.714-.43.265-.14.784-.275 1.058-.302a7.038 7.038 0 001.645-.097c.543-.094.851-.185.992-.235 0 0 .157.097.238.12-.171.04-.466.142-.674.333-.241.229-.295.387-.315.423.067.111.389.252.389.252-.49.172-1.018.249-1.822.283-1.565.073-1.98-.165-2.225-.346zm.446 2.191c.01-.067.154-.326.502-.642.195-.178.53-.4.657-.447 1.125-.033 1.856-.252 2.388-.446.44-.165.64-.27.727-.333.416.138.684.168.76.178-.274.108-.85.706-2.435 1.347-1.463.588-2.033.484-2.6.343zm1.22 1.774s.053-.474.552-1.092c.817-.178 1.795-.746 2.248-1.062.08-.057.103-.047.197-.114.228.098.717.088.938.088-.298.275-1.477 1.354-2.412 1.767-1.011.45-1.524.413-1.524.413zm2.806.766c-.723.514-1.32.591-1.32.591s-.016-.195.024-.45c.067-.407.16-.625.16-.625.872-.393 1.74-1.38 2.091-1.838.074-.097.365-.456.496-.631.06-.004.124-.014.19-.02-.03.084-.096.279-.13.527-.047.33-.013.645-.013.645s.063.024.154.024c-.208.255-.844 1.202-1.652 1.777zm1.648.843c-.636.622-1.222.622-1.222.622s-.027-.245 0-.487c.023-.209.11-.612.124-.666.706-.631 1.175-1.535 1.437-2.08a2.05 2.05 0 00.713-.147c-.01.094-.02.292.004.527.02.165.083.397.117.511a5.103 5.103 0 01-1.173 1.72zm2.01.235c-.542.706-1.135.9-1.135.9s-.168-.14-.161-1.004c.449-.574.71-1.25.904-1.807a2.05 2.05 0 00.921-.508c.024.081.07.242.165.444.023.047.144.235.164.275-.258.763-.506 1.244-.858 1.7zm1.782.121c-.288.713-.716.787-.716.787s-.222-.464-.248-1.17c.187-.44.264-.722.385-1.236.177-.084.459-.249.687-.52.013.036.14.339.224.486-.047.753-.144 1.19-.332 1.653zm.78-1.68s-.106-.08-.25-.305a2.16 2.16 0 01-.222-.45c.01-.027.08-.185.111-.326.06-.262.104-.514.084-.726.003 0 .127-.054.355-.205.234-.148.382-.262.382-.262l.435.343c.004.148-.01.594-.234 1.078-.255.558-.66.854-.66.854zm.188 5.43c-.07-.198-.04-.316.07-.447.108-.128.219-.407.289-.376.07.03.016.157-.03.258-.05.101-.218.232-.188.3.027.07.198-.041.198-.041s-.057.198.05.239c.107.037.137-.098.208-.098.07 0 .167.239.318.259.147.02.315-.178.315-.178l.288.07s.157.316-.1.437c-.259.118-.406-.01-.634-.181-.23-.175-.717-.044-.784-.242zm1.397-.27c-.02-.066.06-.137.06-.137s.027-.107.078.01c.05.118.06.219.01.229-.05.006-.131-.03-.148-.101zm-.1 1.748c-.05-.067-.208.054-.238-.128-.03-.178.07-.168.248-.08.177.09.248.148.194.228-.047.08-.157.05-.204-.02zm.335-.397c-.248.03-.446-.157-.66-.218-.221-.06-.416.04-.573-.178-.157-.218-.024-.309.04-.299.057.01.01.1.077.131.074.03.12-.07.151-.03.03.04-.02.148.037.168.06.02.05-.088.13-.057.08.03.299.127.406.11.107-.02.308-.228.462-.03.157.195.178.373-.07.403zm.274-.685s.228-.161.181.04c-.05.199-.077.33-.218.148-.14-.178.037-.188.037-.188zm.181 1.34c-.194 0-.318-.026-.278-.268.04-.235.05-.118.228-.148s.355-.05.355.148c.003.201-.107.269-.305.269zm.319-.537c-.111-.08-.08-.158-.02-.218s.13-.06.147.12c.02.179-.02.179-.127.098zm.77 7.227a1.394 1.394 0 01-1.092.225c-.459-.098-.616-.35-.717-.605-.134-.336-.07-.92-.06-1.159.003-.064.19-.75.22-.894.021-.107.054-.211-.043-.188-.174.037.02.175-.492.464-.385.212-.596.638-.543 1.125.054.484.024.581.024.581 0-.02-.037-.16-.104-.339-.04-.107-.097-.212-.198-.591-.094-.383.107-.632.308-.917.201-.29.496-.521.496-.521s-.234-.05-.388-.138c-.171-.1-.302-.248-.302-.487 0-.205.191-.376.191-.376s-.034.242.1.433c.094.138.416.279.72.269.309-.01.862-.356 1.086-.635.224-.276.526-.5.754-.642.311-.191.445-.211.697-.258.127.006.18 0 .284.016-.536.266-1.417 1.018-1.966 2.016-.385.689-.402 1.284-.261 1.626.147.367.408.538.666.565.285.033.496-.02.714-.068a.607.607 0 01.519.125c.157.138.15.228.15.228s-.411-.104-.763.145zm-.459-9.532l.315-.329.556.78-.134.147-.737-.598zm.533.803l-.108.121-.767-.524.1-.114.044-.07.73.587zm.546-.282l.127.037-.566.648-.05-.09.489-.595zm.238.356l.787.83-.268.3-.875-.727.356-.403zm.98.991l.065.058-.288.366-.094-.06.318-.364zm.235.205l4.971 5.104-.103.104L16.776 31l.257-.283zm4.85-1.434c.242 0 .279.063.068.232-.211.168-1.176.436-1.176.436s.399.04.623.057c.235.02.302.071.16.236-.16.188-1.262.332-1.262.332s.369.057.586.131c.1.04.218.114-.027.282-.244.168-1.035.357-1.035.357s.496.181.195.356c-.305.178-1.012.319-1.012.319s.429.144.338.285c-.03.047-.167.084-.325.128l-.763-.786c1.42-1.364 2.59-2.406 3.473-2.86.891-.46.982-.369.617-.02-.362.35-1.019.505-1.019.505s.339.01.56.01zm-.394 6.712l.25.246c-.013.006-.016.006-.016.01h-.003c-.55.087-.55-.091-.55-.091s.12-.017.319-.165zm-.473-.043s-.258-.26-.61-.753c-.21-.292-.385-.52-.602-.87l1.514 1.495c-.144.131-.302.128-.302.128zm.48 1.041c.21-.265.127-.44.127-.44s.12.037.334.013c.091-.01.208-.067.208-.067s.09.229-.06.447c-.15.229-.312.195-.586.252-.208.044-.272-.017-.272-.017s.141-.053.248-.188zM18.3 32.871a.338.338 0 01-.027.054c-.137.16-1.407.413-1.407.413l-2.499 2.395s.03-.282.425-.712c.67-.722 1.957-1.865 2.851-2.762l.657.612zm-3.591 4.3s-.225.017-.362-.124c-.221-.222-.144-.588-.144-.588s.114.09.322.117c.087.01.254.01.254.01s-.074.132-.08.27c-.017.134.01.315.01.315zm-.064-.81a.849.849 0 01-.325-.144l.325-.333a.95.95 0 00.248.142c.244.097.522.063.522.063s-.17.36-.77.273zm.687-.497s-.252-.02-.315-.336l2.05-1.958s.023 0 .057-.007c-.037.1-.084.201-.144.299-.325.558-.657.85-.915 1.125-.254.28-.733.877-.733.877zm.62 2.89c-.396-.115-.654-.46-.654-.46s.161-.051.342-.041c.18.01.378.118.378.118s.007-.064-.02-.256c-.02-.148-.04-.285-.237-.53-.265-.33-.597-.283-.68-.353-.017-.014-.054-.098-.07-.242a.392.392 0 01.096-.326c.067-.074.315-.151.48-.333.16-.181.284-.38.284-.38h-.18s.414-.523.93-1.088a4.06 4.06 0 00.788-1.307c.07 0 .026-.003.1-.003a5.506 5.506 0 01-.258.756c-.15.332-.432.759-.693 1.276-.325.635-.573 1.166-.55 1.647.064 1.088 1.323 1.511 1.323 1.511-.01-.003-.653.219-1.38.01zm1.34-2.863a7.81 7.81 0 00-.202 1.381c-.03.635.07 1.068.07 1.068s-.602-.312-.622-1.028c-.01-.426.167-.917.328-1.33.164-.413.884-2.399.884-2.399l.087-.017c-.097.541-.485 2.076-.546 2.325zm.204 2.674c-.094-.047-.128-1.071-.087-1.515.056-.688.234-1.468.435-2.419.074-.366.137-.752.194-1.065.064 0 .054-.02.114-.02.014.642.027 1.59.017 2.359-.02.01-.238.46-.285.601-.047.141-.197.581-.218 1.142-.023.504.08.86.08.86s-.156.104-.25.057zm.733 1.126l-.11-.114s-.178-.215-.268-.333a1.144 1.144 0 01-.205-.366l.188-.074s.087.208.224.417c.044.067.138.188.178.218l-.007.252zm.027-.625l-.02-1.038c-.007-.423-.034-1.495-.03-1.77 0 0 .512.382.479 1.467-.024.76-.261 1.072-.429 1.341zm.231-5.517c.077 0 .097.02.148.02v-.016s.814 2.083.974 2.496c.164.413.335.91.329 1.216-.01.917-.818 1.317-.818 1.317s.272-.544.268-1.29c0-.796-.77-3.259-.9-3.742zm2.231 4.361c-.278.827-1.142.85-1.373.844-.014 0 .62-.242.804-.89.157-.558.17-1.052-.262-1.99-.365-.8-.844-1.965-.971-2.321.057 0 .054-.003.114-.003l.05.043c.097.171.372.659.704 1.317.408.823.61 1.136.78 1.522.278.628.281 1.105.154 1.478zm.54-4.014c.107.084.237.194.385.332.247.208.877.692 1.303.783.556.114.995-.04 1.132-.269.1-.164.08-.332.08-.332s.107.074.144.194c.08.242-.104.498-.321.608-.268.138-.617.172-.942.115-.324 0-.06.127.128.255.489.336 1.108.437 1.145.91.024.34-.01.35-.077.723-.053.292-.127.13-.127.13s-.017-.167-.097-.285c-.191-.289-.462-.342-.64-.641-.16-.272-.442-.753-.573-.608-.1.033.714 1.202.13 1.978-.649.867-1.178.222-1.527.239-.18.007-.489.195-.489.195s.088-.464.205-.575c.117-.11.274-.13.55-.175.267-.04.78-.093.823-.8.017-.265-.2-.614-.278-.728l.144-.175-2.2-2.234c.056 0 .056.014.107.014.157.016.646.084.994.346zm.666-3.051a6.275 6.275 0 01-.365.185c-.06.023-.127.053-.208.084-.502.198-.556.762-.656 1.471-.098.71-.248.592-.493.592-.05 0-.19-.007-.432-.007l-.543-.538a.735.735 0 00.252-.114c.214-.158.053-.356.053-.356s.416-.06.744-.262c.332-.202.137-.423.137-.423s.456-.152.737-.34c.355-.238.097-.5.097-.5s.372-.05.576-.273c.4-.423-.073-.493-.073-.493s.335-.115.536-.3c.325-.305-.024-.423-.024-.423s.583-.4.583-.756c0-.272-.358-.238-.6-.154-.297.104-.787.346-1.467.823-.58.407-1.772 1.434-2.73 2.385l-.971-.994-1.34-1.435-.134-.05-.85-1.028-.982 1.105 1.075.783.03.097 1.541 1.2 1.025.954c-.372.396-.687.722-1.099 1.102h-.11c-.241 0-.392.114-.49-.591-.1-.706-.147-1.28-.656-1.472-.157-.064-.305-.12-.573-.269.057-.265-.114-.447-.207-.423-.037.01-.161.023-.252.161-.04-.023-.023-.01-.063-.037.003-.006.057-.124.063-.134.09-.168.094-.5-.13-.551-.171-.04-.241.047-.241.047s-.03.054-.064-.04a.39.39 0 01-.023-.222c.01-.09-.01-.232-.08-.46-.078-.229-.285-.252-.406-.148-.11.097-.027.222-.144.332-.004.004-.034.004-.04.007-.121-.178-.181-.265-.282-.49-.683-1.54-.24-3.545-.027-4.381.215-.837.891-2.319 1.226-3.054.158-.346.332-.726.453-1.317l1.165-.31c-.08.619-.258 1.338-.418 1.879-.245.823-.69 2.103-.848 2.761-.157.655-.301 2.144.322 3.038a3.917 3.917 0 001.829 1.42v-8.869l.294-.235v9.205c.205.057.39.104.573.145v-9.115l.298-.235v9.397c.181.023.369.04.57.047v-9.209l.295-.235v9.444a6.14 6.14 0 00.57-.047v-9.162l.294-.235v9.347a8.87 8.87 0 00.57-.145v-8.967l.297-.235v9.105a3.933 3.933 0 001.83-1.421c.62-.894.475-2.383.321-3.038-.157-.658-.603-1.938-.848-2.761-.137-.474-.288-.924-.378-1.58l1.085-.268c.014.087.03.171.047.255l-.003.027c.1.49.234.83.368 1.132.027.064.054.128.08.185.336.736 1.009 2.218 1.227 3.054.21.837.653 2.842-.03 4.381-.03.07-.06.134-.09.195-.054.1-.108.178-.185.296-.003-.004-.037-.004-.04-.007-.117-.111-.034-.235-.148-.333-.12-.107-.325-.084-.402.148-.073.229-.09.37-.08.46a.428.428 0 01-.027.222c-.033.094-.064.04-.064.04s-.073-.087-.24-.047c-.225.054-.222.383-.131.551l.063.135c-.04.026-.027.013-.063.037-.087-.138-.211-.155-.252-.162-.11-.03-.274.151-.224.417zm1.337-1.364a.147.147 0 01-.151.1c-.047-.01-.037-.11.013-.228.05-.117.077-.01.077-.01s.084.07.06.138zm-.473.853c-.14.182-.167.05-.218-.148-.046-.201.178-.04.178-.04s.178.01.04.188zm-.666.518c.023-.178.09-.178.15-.121.06.06.09.14-.02.218-.11.08-.147.08-.13-.097zm.448.635c-.197 0-.308-.067-.308-.27 0-.197.178-.177.355-.147.178.03.188-.087.232.148.036.242-.084.269-.279.269zm.791-.259c-.047.07-.157.1-.204.023-.05-.08.017-.137.194-.228.178-.087.278-.097.248.08-.034.175-.188.054-.238.125zm.898-.793c-.154.219-.355.118-.576.178-.215.06-.416.249-.664.218-.244-.03-.227-.208-.067-.406.158-.198.359.01.466.03.107.017.328-.08.405-.11.08-.027.07.08.128.056.057-.02.006-.127.04-.168.03-.04.08.061.15.03.07-.03.02-.12.08-.13.061-.007.199.084.038.302zm.013-.756c.11-.04.05-.238.05-.238s.168.11.198.04c.027-.067-.137-.198-.188-.3-.046-.1-.1-.228-.03-.258s.181.249.285.377c.11.127.144.248.07.446-.07.199-.552.07-.78.239-.228.171-.379.299-.633.181-.258-.12-.1-.436-.1-.436l.287-.071s.165.198.315.178c.148-.02.245-.259.319-.259.07.004.097.142.207.101zm.824-5.668c-.144.229-.251.306-.251.306s-.405-.292-.663-.85a2.597 2.597 0 01-.235-1.078l.436-.343s.147.11.382.262c.23.148.355.205.355.205-.02.212.023.464.083.726.034.14.104.299.114.326a1.994 1.994 0 01-.22.446zm1.246 2.776s-.428-.074-.713-.787c-.188-.463-.285-.897-.335-1.65.084-.147.21-.453.224-.486.228.272.506.436.687.52.12.514.198.797.385 1.237-.03.702-.248 1.166-.248 1.166zm2.201-.004s-.596-.195-1.139-.9c-.352-.46-.6-.941-.857-1.7.023-.04.144-.229.167-.276.09-.201.14-.363.16-.443.296.292.654.437.922.507.194.558.459 1.233.905 1.808.01.86-.158 1.004-.158 1.004zm2.094-.517s-.583 0-1.223-.622a5.032 5.032 0 01-1.169-1.72c.03-.114.097-.346.114-.51a2.47 2.47 0 00.003-.528c.251.1.506.138.714.148.261.544.733 1.448 1.437 2.08.013.053.1.46.124.665.026.241 0 .487 0 .487zm1.748-.874s-.593-.077-1.316-.591c-.81-.575-1.447-1.519-1.648-1.78.09-.004.15-.024.15-.024s.034-.313-.013-.645c-.037-.249-.104-.444-.13-.528.063.007.127.017.187.02.134.178.422.535.496.632.351.46 1.22 1.445 2.09 1.838 0 0 .097.218.164.625.04.255.02.453.02.453zm1.488-1.357s-.51.037-1.525-.413c-.938-.417-2.113-1.492-2.411-1.767.22-.004.71.006.938-.088.093.07.117.057.197.114.452.316 1.43.884 2.248 1.062.502.618.553 1.092.553 1.092zm.716-2.416c.345.316.493.575.503.642-.563.141-1.136.245-2.596-.343-1.585-.641-2.16-1.24-2.432-1.347.077-.01.342-.04.757-.178.09.06.288.168.727.333.532.195 1.263.413 2.388.447.124.047.46.268.653.446zm.235-1.982c.402.212.673.38.713.43-.24.182-.656.42-2.227.346-.8-.033-1.333-.11-1.823-.282 0 0 .322-.141.39-.252-.018-.037-.071-.195-.316-.423-.204-.188-.499-.293-.67-.333.08-.023.235-.12.235-.12.14.046.449.137.991.234.45.084.965.131 1.645.098.275.027.8.161 1.062.302zm-.76-1.018c-1.327.182-2.07.114-2.372.044.05-.037.167-.128.177-.165 0 0-.113-.211-.308-.35-.375-.265-.633-.298-.633-.298.395.013.998.05 1.668.017.436-.024.841-.034 1.44-.229.262.014.744-.013 1.183.074.332.064.533.161.64.195-.228.181-.76.571-1.796.712zm-6.767.313l.784.06.167-.228-.197-.178-.774.1.02.246zm-16.993-7.476s-.007-.06-.007-.144c0-.087.01-.195.01-.195s-.238.195-.301.43c-.064.235-.054.289-.054.289s.02-.087.258-.151c.234-.064.546-.044.546-.044l.064-.13s-.1-.061-.258-.071c-.161-.01-.258.016-.258.016zm15.961.232c.235.064.258.151.258.151s.01-.053-.053-.289c-.064-.235-.302-.43-.302-.43s.01.108.01.195c0 .084-.006.145-.006.145s-.098-.024-.262-.014c-.16.01-.261.07-.261.07l.064.132c.003-.003.314-.024.552.04zM19.462 4.67c.11.161.208.33.285.47.053-.05.12-.11.184-.168.027-.027.097-.097.134-.137a4.53 4.53 0 00-.282-.47c-.123.12-.25.248-.321.305zm.362-.682c.117-.124.187-.205.278-.313a1.779 1.779 0 00-.138-.17l-.147-.172-.144.154c-.067.068-.097.091-.157.148.093.098.19.208.268.306.016.023.023.02.04.047zm-3.27-.034c.074-.097.175-.208.265-.309-.06-.057-.09-.08-.157-.148a4.647 4.647 0 01-.141-.154c-.05.057-.1.11-.15.171-.058.067-.095.108-.138.172.09.107.164.188.281.309.017-.017.024-.017.04-.04zM13.426 6.75c-.034-.06-.1-.142-.178-.226l-.224.26c.067.076.11.15.177.238a4.03 4.03 0 00.225-.272zm3.45-2.067a7.127 7.127 0 01-.322-.309 4.565 4.565 0 00-.281.47l.134.138c.064.057.127.115.18.165.081-.138.175-.302.289-.464zm6.642 2.157l-.227-.255a1.44 1.44 0 00-.178.225c.064.08.171.212.225.272.063-.09.11-.164.18-.242zM5.591 8.752c.258-.098.408-.064.67 0 .258.064.593-.034.593-.034s-.315.178-.41.467c-.093.286.031.73.426.793.402.067.54.027.727.057.188.03.426.044.426.044s-.168-.192-.302-.302c-.127-.115-.338-.212-.268-.41.057-.162.409-.417.677-.659.301-.272.261-.695.053-.974-.23-.31-.395-.551-.63-.86-.25-.336.017-.706.017-.706s.43-.047.78-.11c.353-.064.54-.175.54-.175s-.02.366-.073.702c-.044.255-.242.847.093 1.357.268.413 1.092.682 1.357.736.315.064.566.087.891.11l.05.004c.275.02.6.034 1.474.02.884-.013 1.575-.07 2.09-.14a7.954 7.954 0 001.069-.212 3.386 3.386 0 001.564-1.002s.369.162.777.158c.332-.003.734-.154.734-.154s.65.672 1.213.883c.482.182.988.296 1.54.363l.064.014c.52.07 1.166.12 2.053.134.871.01 1.196-.003 1.471-.023l.05-.004a6.48 6.48 0 00.891-.114c.262-.054 1.086-.323 1.357-.732.332-.511.134-1.102.094-1.358-.057-.336-.074-.702-.074-.702s.184.11.536.175c.352.064.78.11.78.11s.269.367.017.703c-.234.312-.398.554-.63.863-.207.28-.247.702.054.975.271.241.623.5.677.658.07.202-.138.299-.268.41-.13.11-.295.306-.295.306s.238-.014.425-.044c.185-.034.322.01.724-.057.399-.067.523-.51.429-.796-.094-.286-.409-.464-.409-.464s.335.097.596.034c.262-.064.409-.098.667 0 .261.097.278.248.278.248s.147-.295.09-.598c-.057-.306-.438-.474-.847-.504-.409-.03-.184-.302-.017-.463.168-.162.603-.484.496-1.015-.104-.514-.583-.679-1.2-.837-.612-.157-.68-.688-.994-.94-.546-.44-1.032-.104-1.216.037-.188.144-.483.13-.687.195-.204.063-.392.194-.613.584-.325.575.13 1.183.355 1.79.221.606-.06 1.076-.787 1.23-.271.058-.53.064-.556.058l.034-.189a2.83 2.83 0 01.24-.628c.148-.272.299-.79.299-.79a.746.746 0 00-.349-.685c-.13-.067-.321-.117-.6-.201a.988.988 0 01-.364-.185.399.399 0 00-.02-.423h.07l.003-.037-.261-.404.415.091-.006-.46-.432.097.103-.453-.475-.014.117.494-.422-.127-.007.45.389-.114-.225.443v.034h.077s-.006.013-.016.026a.414.414 0 00-.057.202c0 .07.016.134.05.192a.946.946 0 01-.372.188c-.275.084-.469.137-.596.205a.737.737 0 00-.348.685c.033.366.15.52.298.79.147.272.224.544.24.628.01.047.014.077.028.148-.03 0-.198-.01-.228-.014-.238-.03-.647-.084-.995-.235l-.014-.01c-.753-.336-1.38-.92-1.61-1.28-.252-.4-.225-.608-.202-.773.02-.164.104-.406.104-.406.064-.202.171-.427.325-.716.238-.433.409-.719.409-1.172 0-.592-.218-.884-.513-1.082-.194-.131-.469-.172-.91-.306a2.048 2.048 0 01-.664-.336c.05-.09.097-.168.097-.279a.635.635 0 00-.09-.326.234.234 0 00-.027-.047h.07l.003-.057-.395-.547.583.077-.023-.595-.533.124.174-.564h-.733l.144.554-.58-.117v.641l.61-.117-.442.55.003.061h.054a.636.636 0 00-.111.363.61.61 0 00.097.36c-.067.057-.251.174-.636.278-.45.121-.71.145-.965.3-.281.167-.49.534-.462 1.122.023.504.355.97.576 1.42.228.45.241.666.264.797.017.104.014.265 0 .376-.026.188-.046.262-.194.47-.305.427-.737.753-1.474 1.126-.425.215-.84.3-.995.3-.026 0-.197.016-.227.013.013-.071.016-.101.026-.148.017-.08.094-.353.242-.625.144-.272.264-.423.294-.79a.737.737 0 00-.348-.685c-.127-.067-.325-.121-.6-.202a.956.956 0 01-.368-.191.408.408 0 00.05-.192.421.421 0 00-.07-.228h.074l.003-.034-.224-.443.388.117-.01-.45-.419.125.118-.494-.48.013.104.454-.432-.094-.01.46.412-.09-.261.406.003.037h.07a.399.399 0 00-.017.423.967.967 0 01-.364.185c-.275.084-.473.134-.6.201a.731.731 0 00-.348.686c.03.366.147.517.295.79.147.271.224.543.24.627.01.064.028.131.034.189a2.4 2.4 0 01-.552-.058c-.724-.154-1.009-.621-.788-1.23.225-.607.677-1.215.355-1.79-.22-.393-.405-.524-.613-.584-.2-.064-.499-.054-.683-.195-.187-.145-.673-.48-1.226-.037-.315.252-.382.783-.995.94-.613.158-1.092.32-1.196.837-.107.527.329.853.496 1.015.168.16.392.43-.017.463-.408.034-.794.202-.847.504-.057.303.094.598.094.598s.016-.158.278-.255zm21.522-3.565c.234-.033.331-.087.583-.215.25-.127.438-.299.72-.188.241.094.385.343.573.585.187.242.398.42.572.494.175.07.567.11.804.241.339.182.422.551.134.981-.294.434-.596.582-.539.783.06.225.322.33.54.356.602.078.612.427.612.427s-.25-.252-.686-.12c-.168.053-.49.11-.667.07-.174-.04-.325-.162-.325-.162s-.15.205-.06.323c.097.12.2.185.315.33.124.15.315.402-.087.627-.235.132-.496.088-.496.088s.335-.101.258-.444c-.057-.245-.399-.47-.627-.628-.355-.245-.301-.564-.127-.853.174-.293.5-.632.724-1.028.204-.36.04-.514.04-.514s.787-.152.697.473c-.034.239.003.47.144.3.14-.172.291-.558.037-.77-.258-.208-.506-.242-.878-.299-.372-.06-.982-.06-1.46-.279-.48-.222-.386-.195-.63-.289-.46-.181-.74.098-.74.098s.183-.33.569-.387zm-.53 1.284c-.137-.343.108-.592.406-.662.177-.044.321.064.321.064s0 .174.014.255c.01.08.063.423.14.786.128.585-.073.91-.438 1.23a1.21 1.21 0 01-.426.242s.114-.101.198-.286c.12-.259.194-.487.1-.8-.09-.292-.164-.46-.314-.83zm-1.54 1.999c-.01.067-.01.1-.01.1s-.312-.073-.891-.09c-.577-.017-.915.084-.915.084v-.08c0-.031-.007-.105-.007-.105s.412-.141.898-.155c.49-.01.931.172.931.172s0 .03-.006.074zm-1.622-.682s.191-.057.322 0c.13.06.245.299.245.299s-.225.033-.339-.027c-.104-.057-.228-.272-.228-.272zm.72.218s-.113-.165-.11-.356c.007-.188.124-.346.124-.346s.13.198.11.366a1.013 1.013 0 01-.123.336zm.42-.181c.133-.057.29.016.29.016s-.076.158-.19.219c-.11.057-.412.064-.412.064s.177-.239.311-.3zm.033-1.593l.047.024s-.014.144-.04.346c.01.013.02.03.036.043l.235-.221a10.943 10.943 0 00-.137-.141l.167.036.174.027c.003.007.07.05.248.293l.094-.121s.073.043.117.11c.04.068.03.091.03.091-.02.03-.074.101-.1.151.104.209.13.256.134.26 0 0-.02.06-.057.147-.04.087-.07.11-.07.11s-.078-.187-.155-.349c-.06.068-.15.212-.204.266.154.275.17.41.17.413 0 0-.016.024-.06.104-.056.101-.087.195-.087.195s-.043-.282-.204-.568a3.13 3.13 0 01-.221.175l-.204-.165s.12-.08.284-.235l-.237-.322c-.06.332-.108.527-.108.527l-.21-.107s.033-.209.08-.571c.037-.326.037-.635.037-.635l.24.117zm-.436-.726a.21.21 0 01.205.209c0 .11-.094.205-.205.205a.205.205 0 01-.204-.205.21.21 0 01.204-.209zM22.99 7.032c-.077.161-.154.35-.154.35s-.033-.021-.07-.112c-.04-.087-.06-.148-.06-.148 0-.003.026-.047.134-.258a2.8 2.8 0 00-.104-.151s-.01-.024.033-.091a.355.355 0 01.117-.111l.094.12c.178-.24.245-.285.248-.291l.17-.027.168-.037-.137.14.235.223a.304.304 0 01.033-.04c-.03-.209-.04-.357-.04-.357l.03-.006.238-.101s.013.309.053.635c.044.363.05.534.05.534l-.174.114s-.046-.191-.107-.52a9.598 9.598 0 00-.234.319c.16.157.281.235.281.235l-.204.164-.218-.174c-.16.285-.204.567-.204.567s-.03-.094-.087-.194l-.06-.105c.003-.003.016-.137.174-.413-.057-.054-.148-.195-.205-.265zm-4.833.211c-.335.007-.583-.104-.583-.104l.234-.302s.154.185.355.185c.195 0 .322-.202.322-.202l.231.31c.003-.004-.218.107-.56.113zm.05-.843c-.958.027-1.504.148-1.504.148s.01-.097.01-.168c0-.067-.02-.124-.02-.124s.74-.3 1.547-.283c.811.017 1.498.256 1.498.256s-.01.124-.01.178v.13c.003 0-.56-.167-1.521-.137zm-.027-2.637a.216.216 0 01-.214-.215c0-.118.097-.215.214-.215a.216.216 0 010 .43zm.144.35c0 .08-.064.144-.144.144a.144.144 0 01-.147-.145c0-.08.063-.148.147-.148.077 0 .144.068.144.148zm-.134.335s.194.256.204.571c.01.316-.184.592-.184.592s-.167-.276-.204-.555c-.037-.282.184-.608.184-.608zm-.01-1.28a.313.313 0 01-.315-.316.313.313 0 11.627 0 .315.315 0 01-.312.316zm-1.286 2.097s.412-.03.633.063c.22.098.415.44.415.44s-.476.034-.66-.063c-.184-.098-.388-.44-.388-.44zm1.514.517s.23-.37.449-.467c.22-.097.556-.118.556-.118s-.201.356-.389.454c-.18.1-.616.131-.616.131zm1.722 1.77c.556.484 1.293.827 1.293.827s-.918-.208-1.578-.642a2.93 2.93 0 01-.895-.897l.6.027c-.003 0 .13.296.58.685zm-1.046-3.79s.027-.046.09-.103a.324.324 0 01-.063-.091l.034-.336s.1.138.214.255c.024-.023.014-.003.04-.03.09-.097.178-.198.248-.282a6.932 6.932 0 00-.419-.407l.191.044.255.07s.037.004.134.101c.034-.047.047-.05.047-.05l.208.094s.006.02-.084.128c.053.06.114.13.184.218.04.05.06.07.097.118.094-.121.134-.192.134-.192l.094.256s-.027.043-.097.134c.114.235.167.373.167.373l-.09.285s-.077-.201-.245-.467c-.083.105-.157.182-.271.306.124.178.231.353.288.454.11-.125.178-.195.178-.195l-.165.309a.807.807 0 01.007.007l-.15.282-.104.107a2.8 2.8 0 01-.171.168c.047.098.07.158.07.158l-.114.363s-.227-.574-.432-.894c-.228-.352-.422-.56-.422-.56L19 4.111s.1.077.328.38c.067-.06.188-.188.315-.316-.01-.013-.007 0-.017-.013a7.098 7.098 0 00-.301-.346c-.168.154-.312.275-.312.275l.07-.33zm-.365-1.232l.245.148.053.01s-.04.457-.13.998c-.11.6-.194.954-.194.954l-.201-.108s.046-.316.113-.917c.06-.54.114-1.085.114-1.085zm-.57-1.005c.222 0 .396.182.396.403a.4.4 0 01-.395.404.4.4 0 01-.402-.404c0-.221.177-.403.402-.403zm-.716 1.166l.245-.151a49.54 49.54 0 00.227 2.006l-.2.104s-.088-.353-.195-.954c-.097-.541-.134-.998-.134-.998l.057-.007zm-1.099 2.47l-.103-.105-.151-.282.003-.01-.164-.31.178.196c.056-.101.164-.28.288-.454-.114-.124-.188-.201-.275-.306a3.075 3.075 0 00-.241.467l-.087-.285s.053-.141.164-.373a1.74 1.74 0 01-.097-.134l.093-.252s.037.067.134.188c.034-.047.057-.07.098-.121.07-.084.13-.155.184-.215-.09-.111-.084-.131-.084-.131l.208-.09c0-.001.013.006.047.05.097-.098.134-.101.134-.101l.258-.07.19-.045s-.17.145-.418.407c.07.084.157.188.248.282.026.027.016.01.04.03.117-.117.218-.255.218-.255l.033.34s-.02.046-.064.09a.45.45 0 01.09.104l.064.326s-.144-.124-.311-.279c-.08.088-.184.202-.302.346-.01.014-.006 0-.016.014.127.127.248.255.315.316.227-.303.328-.38.328-.38l.063.275s-.194.212-.421.561c-.205.32-.433.894-.433.894l-.114-.36s.027-.06.074-.157c-.067-.064-.134-.128-.17-.172zm-.134 2.39c.45-.39.583-.685.583-.685l.6-.027s-.285.497-.895.897c-.663.434-1.577.642-1.577.642s.737-.343 1.29-.827zm-2.884.874v.08s-.341-.1-.914-.083a5.07 5.07 0 00-.888.087s0-.03-.013-.1a1.9 1.9 0 01-.01-.075s.445-.181.93-.171c.486.01.902.151.902.151s-.007.08-.007.111zm-1.021-.363s-.305-.007-.416-.064c-.11-.057-.187-.218-.187-.218s.157-.074.291-.017c.13.06.312.3.312.3zm-.017-.45c-.02-.168.11-.366.11-.366s.118.154.124.346c.007.191-.11.356-.11.356s-.104-.165-.124-.336zm.275.413s.113-.238.244-.299c.13-.06.325 0 .325 0s-.12.215-.235.272c-.11.06-.334.027-.334.027zm.3-1.84l.031.006s-.013.151-.04.356a.35.35 0 00.033.04l.235-.221c-.084-.088-.138-.142-.138-.142l.168.034.174.027c.004.007.07.05.248.292l.094-.124s.077.044.117.11c.044.068.034.091.034.091-.02.03-.074.101-.1.152.103.208.13.255.13.255s-.02.06-.06.148c-.04.087-.07.11-.07.11s-.078-.19-.155-.349c-.057.07-.147.215-.204.266.154.275.17.41.17.413l-.06.104c-.053.098-.087.195-.087.195s-.043-.282-.207-.568c-.134.111-.218.175-.218.175l-.205-.165s.121-.077.285-.235l-.234-.32c-.06.33-.107.522-.107.522l-.178-.115s.01-.17.054-.53c.036-.326.05-.635.05-.635l.24.107zm-.471-.737c.114 0 .204.091.204.205a.208.208 0 01-.204.209.206.206 0 01-.205-.209c0-.114.09-.205.205-.205zm-1.123 2.204c0-.003.017-.137.171-.413-.057-.054-.144-.198-.204-.265-.077.16-.154.349-.154.349s-.034-.023-.07-.11c-.04-.088-.057-.149-.057-.149s.026-.047.134-.255a1.89 1.89 0 00-.104-.151s-.01-.024.033-.09a.364.364 0 01.117-.112l.098.125c.177-.242.24-.286.248-.293l.174-.027.167-.033-.137.14.234.223c.014-.014.024-.03.037-.044-.027-.202-.04-.346-.04-.346l.043-.024.242-.12s0 .312.04.634c.04.363.077.572.077.572l-.208.107s-.047-.195-.11-.527a20.27 20.27 0 00-.238.319c.16.158.281.235.281.235l-.204.165-.218-.175c-.16.282-.207.568-.207.568s-.03-.098-.088-.195l-.056-.108zM9.956 6.41c-.147.37-.224.538-.311.827-.09.312-.02.537.1.8a.95.95 0 00.201.285s-.214-.057-.425-.242c-.369-.32-.57-.642-.442-1.226.077-.363.13-.706.14-.786.014-.081.014-.256.014-.256s.14-.104.321-.064c.299.07.543.323.402.662zm-3.91 1.757c.215-.027.48-.134.54-.356.057-.201-.245-.35-.54-.783-.291-.43-.207-.8.13-.98.242-.132.63-.172.808-.243.174-.07.385-.252.573-.49.188-.242.332-.487.573-.581.278-.111.469.057.72.188.251.124.348.178.586.215a.838.838 0 01.566.386s-.281-.282-.74-.1c-.245.094-.15.063-.63.285-.479.222-1.085.222-1.46.279-.372.06-.62.09-.874.299-.258.212-.104.601.036.773.138.171.175-.057.141-.3-.09-.624.697-.47.697-.47s-.164.151.043.51c.228.397.55.737.727 1.029.174.292.225.611-.127.857-.228.158-.57.383-.626.628-.078.343.257.443.257.443s-.264.047-.499-.084c-.395-.225-.204-.473-.083-.628.114-.14.217-.205.311-.33.094-.12-.057-.325-.057-.325s-.15.121-.328.161c-.174.04-.5-.02-.667-.07-.435-.135-.686.12-.686.12s.006-.355.61-.433zm5.708-1.384l-.228-.259a1.82 1.82 0 00-.177.226c.067.08.167.211.224.272.067-.088.114-.162.181-.239zm13.436.027a1.248 1.248 0 00-.178-.225l-.224.255c.067.078.11.151.178.239.053-.057.16-.192.224-.269z"/></g><defs><clipPath id="clip0"><path fill="#fff" d="M0 0h194v40H0z"/></clipPath></defs></svg>