<svg width="211" height="48" viewBox="0 0 211 48" fill="none" xmlns="http://www.w3.org/2000/svg">
<path d="M159.597 25.6931C159.597 25.6931 130.666 24.8819 108.494 29.0729C91.8647 32.1824 90.0396 35.1567 60.3643 37.2522C35.5561 37.6578 2.56866 37.793 2.56866 37.793L2.70386 38.8069L135.668 38.6041C135.668 38.6041 136.344 38.2662 137.087 37.793C139.25 36.6438 143.982 34.4807 151.891 32.3852C173.522 26.707 209.619 27.7886 209.619 27.7886L209.89 26.5042L159.597 25.6931Z" fill="white"/>
<path d="M98.8948 22.8533C121.81 14.4036 158.921 14.8768 182.107 16.2287C177.375 15.7556 168.926 15.012 154.122 13.9304C126.677 11.9025 111.874 10.6858 98.8948 13.0517C85.8486 15.4852 78.8861 20.217 71.5855 22.9885C62.2571 26.5035 54.7538 29.2074 49.8192 29.8158C56.9845 29.8834 81.9279 29.1398 98.8948 22.8533Z" fill="white"/>
<path d="M99.03 23.2597C88.4848 27.1803 75.1682 28.8702 65.8397 29.6138C61.1079 30.0194 56.5113 30.1546 53.0638 30.2222C60.4319 30.5602 75.5737 30.763 91.3915 28.0591C105.452 25.6932 109.44 25.0848 134.248 24.0032C158.786 22.9217 182.513 24.3412 182.513 24.3412L187.177 17.0407C164.802 15.4184 123.635 14.2016 99.03 23.2597Z" fill="white"/>
<path d="M209.687 15.6881C179.403 12.7139 158.718 10.8211 148.106 10.01C145.267 9.80717 142.225 9.53678 139.048 9.19879C123.365 7.77925 103.897 6.02172 88.4173 8.72561C82.9419 9.67197 78.4129 10.7535 74.019 11.6999C63.4739 14.1334 54.3482 16.2289 35.6238 16.5669C24.1998 16.7697 17.1697 16.8373 12.4379 16.8373C10.2072 16.8373 8.44966 16.8373 6.96252 16.7697C11.9647 17.2429 19.4004 18.392 27.7149 21.0283C42.9243 25.8277 53.4019 23.597 66.2453 19.744C82.6039 14.877 93.6222 7.23847 120.796 9.19879C151.215 11.4295 209.552 16.2965 209.552 16.2965L210.971 16.3641L210.768 15.7557L209.687 15.6881Z" fill="white"/>
<path d="M0.270389 16.4321V16.2293C1.35195 16.2293 2.29831 16.2293 3.31227 16.2293C8.17927 16.3645 13.6547 16.4321 35.6238 16.0941C54.2806 15.7561 63.4063 13.6606 73.8838 11.2947C78.2777 10.2807 82.7391 9.26674 88.2821 8.32038C103.829 5.54889 123.365 7.37401 139.048 8.79356C142.225 9.06395 145.267 9.33434 148.106 9.60472C158.718 10.4159 179.403 12.3762 209.687 15.2829H209.822C200.832 13.593 116.538 -1.61643 82.4011 0.141103C46.3041 1.96623 30.0132 13.9985 1.75753 14.5393C1.01396 14.5393 0.608376 14.6069 0 14.6745L0.270389 16.4321Z" fill="white"/>
<path d="M8.38207 41.3076H6.55695V46.3098H5.81338V41.3076H4.05585V40.6992H8.38207V41.3076Z" fill="white"/>
<path d="M10.4776 46.3778C9.93678 46.3778 9.4636 46.175 9.12562 45.837C8.78763 45.4314 8.58484 44.9582 8.58484 44.3499V44.2147C8.58484 43.8091 8.65244 43.4035 8.85523 43.1331C8.99042 42.7951 9.26081 42.5247 9.5312 42.3895C9.80159 42.1867 10.1396 42.1191 10.4776 42.1191C11.0183 42.1191 11.4239 42.3219 11.7619 42.6599C12.0323 42.9979 12.2351 43.5387 12.2351 44.2147V44.485H9.39601C9.39601 44.8906 9.5312 45.2286 9.73399 45.499C9.93678 45.7694 10.2748 45.9046 10.6128 45.9046C10.8831 45.9046 11.0859 45.837 11.2211 45.7694C11.4239 45.6342 11.5591 45.499 11.6943 45.3638L12.0999 45.7018C11.6943 46.1074 11.1535 46.3778 10.4776 46.3778ZM10.3424 42.6599C10.072 42.6599 9.80159 42.7951 9.5988 42.9979C9.39601 43.2007 9.26081 43.4711 9.26081 43.8767H11.3563V43.8091C11.3563 43.4711 11.2211 43.1331 11.0859 42.9979C10.8831 42.7275 10.6804 42.6599 10.3424 42.6599Z" fill="white"/>
<path d="M15.4798 46.3104C15.4122 46.2428 15.4122 46.1076 15.4122 45.8372C15.0742 46.1752 14.6686 46.378 14.1954 46.378C13.7898 46.378 13.4519 46.2428 13.1815 46.04C12.9111 45.8372 12.7759 45.4992 12.7759 45.1612C12.7759 44.7557 12.9111 44.4177 13.2491 44.1473C13.587 43.8769 14.0602 43.8093 14.6686 43.8093H15.3446V43.4713C15.3446 43.2009 15.277 42.9981 15.1418 42.8629C15.0066 42.7277 14.8038 42.6601 14.4658 42.6601C14.1954 42.6601 13.9926 42.7277 13.8574 42.8629C13.6546 42.9981 13.587 43.1333 13.587 43.3361H12.8435C12.8435 43.1333 12.9111 42.9305 13.0463 42.7277C13.1815 42.5249 13.3843 42.3897 13.6546 42.2545C13.925 42.1194 14.1954 42.0518 14.4658 42.0518C14.939 42.0518 15.3446 42.187 15.615 42.3897C15.8854 42.6601 16.0205 42.9305 16.0205 43.4037V45.2964C16.0205 45.702 16.0881 45.9724 16.1557 46.2428V46.3104H15.4798ZM14.3306 45.7696C14.5334 45.7696 14.7362 45.702 14.939 45.5668C15.1418 45.4316 15.277 45.2964 15.3446 45.0936V44.2149H14.8038C13.925 44.2149 13.5194 44.4853 13.5194 44.9584C13.5194 45.1612 13.587 45.364 13.7222 45.4992C13.8574 45.702 14.0602 45.7696 14.3306 45.7696Z" fill="white"/>
<path d="M20.2792 42.7275H18.8596V46.3102H18.116V42.7275H16.7641V42.1191H20.2792V42.7275Z" fill="white"/>
<path d="M24.4702 44.2825C24.4702 44.8908 24.335 45.4316 24.0646 45.8372C23.7942 46.2428 23.3886 46.4456 22.9155 46.4456C22.3747 46.4456 22.0367 46.3104 21.6987 45.9724V48.0003H20.9551V42.187H21.6311V42.5925C21.9015 42.2545 22.3071 42.0518 22.8479 42.0518C23.321 42.0518 23.7266 42.2545 24.0646 42.5925C24.335 42.9981 24.4702 43.5389 24.4702 44.2825ZM23.7942 44.1473C23.7942 43.6741 23.7266 43.3361 23.5238 42.9981C23.321 42.7277 23.0507 42.5925 22.7127 42.5925C22.3071 42.5925 21.9691 42.7953 21.7663 43.2009V45.2288C21.9691 45.6344 22.3071 45.7696 22.7803 45.7696C23.1183 45.7696 23.3886 45.6344 23.5914 45.364C23.659 45.0936 23.7942 44.6881 23.7942 44.1473Z" fill="white"/>
<path d="M27.1741 44.1473C27.1741 43.7417 27.2417 43.4037 27.4445 43.0657C27.5797 42.7277 27.85 42.4573 28.1204 42.3221C28.3908 42.1194 28.7288 42.0518 29.1344 42.0518C29.6752 42.0518 30.1484 42.2545 30.4863 42.6601C30.8243 43.0657 31.0271 43.6065 31.0271 44.2149V44.2825C31.0271 44.6881 30.9595 45.026 30.8243 45.364C30.6891 45.702 30.4187 45.9724 30.1484 46.1076C29.878 46.3104 29.54 46.378 29.1344 46.378C28.5936 46.378 28.1204 46.1752 27.7824 45.7696C27.3093 45.364 27.1741 44.8908 27.1741 44.1473ZM27.85 44.2825C27.85 44.7556 27.9852 45.0936 28.188 45.4316C28.3908 45.702 28.6612 45.8372 29.0668 45.8372C29.4048 45.8372 29.7428 45.702 29.9456 45.4316C30.1484 45.1612 30.2835 44.7556 30.2835 44.2149C30.2835 43.7417 30.1484 43.4037 29.9456 43.1333C29.7428 42.8629 29.4724 42.7277 29.0668 42.7277C28.7288 42.7277 28.4584 42.8629 28.188 43.1333C27.9852 43.3361 27.85 43.7417 27.85 44.2825Z" fill="white"/>
<path d="M35.2858 46.3102H34.5422V42.7275H32.6495V46.3102H31.9059V42.1191H35.2858V46.3102Z" fill="white"/>
<path d="M38.1925 46.3778C37.6517 46.3778 37.1785 46.175 36.8405 45.837C36.5025 45.4314 36.2997 44.9582 36.2997 44.3499V44.2147C36.2997 43.8091 36.3673 43.4035 36.5701 43.1331C36.7053 42.7951 36.9757 42.5247 37.2461 42.3895C37.5165 42.1867 37.8545 42.1191 38.1925 42.1191C38.7332 42.1191 39.1388 42.3219 39.4768 42.6599C39.7472 42.9979 39.95 43.5387 39.95 44.2147V44.485H37.1109C37.1109 44.8906 37.2461 45.2286 37.4489 45.499C37.6517 45.7694 37.9897 45.9046 38.3277 45.9046C38.5981 45.9046 38.8008 45.837 38.936 45.7694C39.1388 45.6342 39.274 45.499 39.4092 45.3638L39.8148 45.7018C39.4092 46.1074 38.8684 46.3778 38.1925 46.3778ZM38.0573 42.6599C37.7869 42.6599 37.5165 42.7951 37.3137 42.9979C37.1109 43.2007 36.9757 43.4711 36.9757 43.8767H39.0712V43.8091C39.0712 43.4711 38.936 43.1331 38.8008 42.9979C38.5981 42.7275 38.3953 42.6599 38.0573 42.6599Z" fill="white"/>
<path d="M44.141 44.2823C44.141 44.8906 44.0058 45.4314 43.7354 45.837C43.465 46.2426 43.0594 46.4454 42.5862 46.4454C42.0455 46.4454 41.7075 46.3102 41.3695 45.9722V48.0001H40.6259V42.1867H41.3019L41.3695 42.6599C41.6399 42.3219 42.0455 42.1191 42.5862 42.1191C43.0594 42.1191 43.465 42.3219 43.803 42.6599C44.0058 42.9979 44.141 43.5387 44.141 44.2823ZM43.3974 44.1471C43.3974 43.6739 43.3298 43.3359 43.127 42.9979C42.9242 42.7275 42.6538 42.5923 42.3158 42.5923C41.9103 42.5923 41.5723 42.7951 41.3695 43.2007V45.2286C41.5723 45.6342 41.9103 45.7694 42.3834 45.7694C42.7214 45.7694 42.9918 45.6342 43.1946 45.3638C43.3298 45.0934 43.3974 44.6878 43.3974 44.1471Z" fill="white"/>
<path d="M45.831 43.5387H46.9126C47.3857 43.5387 47.7913 43.6739 48.0617 43.8767C48.3321 44.0795 48.4673 44.4174 48.4673 44.8906C48.4673 45.2962 48.3321 45.6342 48.0617 45.9046C47.7913 46.175 47.3857 46.3102 46.9126 46.3102H45.155V42.1191H45.8986V43.5387H45.831ZM45.831 44.1471V45.7018H46.9126C47.1829 45.7018 47.3857 45.6342 47.5209 45.499C47.6561 45.3638 47.7237 45.161 47.7237 44.9582C47.7237 44.7554 47.6561 44.5526 47.5209 44.4174C47.3857 44.2823 47.1829 44.2147 46.9126 44.2147H45.831V44.1471ZM49.9544 46.3102H49.2109V42.1191H49.9544V46.3102Z" fill="white"/>
<path d="M55.8353 42.1191H56.5789V46.3102H55.8353V43.2683L53.875 46.3102H53.1314V42.1191H53.875V45.161L55.8353 42.1191Z" fill="white"/>
<path d="M61.5135 42.3895C62.0543 42.3895 62.4599 42.5923 62.7979 42.9302C63.1358 43.2682 63.271 43.7414 63.271 44.3498V44.4174C63.271 44.823 63.2034 45.161 63.0683 45.4989C62.9331 45.8369 62.7303 46.0397 62.3923 46.2425C62.1219 46.4453 61.7839 46.5129 61.3783 46.5129C60.8375 46.5129 60.3644 46.3101 60.0264 45.9721C59.6884 45.5665 59.4856 45.0934 59.4856 44.485V43.9442C59.4856 43.0654 59.6208 42.3895 59.9588 41.8487C60.2968 41.3079 60.7699 41.0375 61.3783 40.9023C61.7163 40.8347 61.9867 40.7671 62.1219 40.6995C62.2571 40.6319 62.3247 40.4967 62.3247 40.2939H62.9331C62.9331 40.6319 62.8655 40.8347 62.7303 41.0375C62.5951 41.2403 62.3247 41.3755 62.0543 41.4431L61.5135 41.5783C61.1079 41.6459 60.7699 41.8487 60.5672 42.1191C60.3644 42.3895 60.2292 42.6599 60.1616 43.0654C60.4996 42.5923 60.9727 42.3895 61.5135 42.3895ZM61.3783 42.9302C61.0403 42.9302 60.7699 43.0654 60.5672 43.2682C60.3644 43.471 60.2292 43.809 60.2292 44.2146V44.2822C60.2292 44.7554 60.3644 45.0934 60.5672 45.3637C60.7699 45.6341 61.0403 45.7693 61.3783 45.7693C61.7163 45.7693 61.9867 45.6341 62.1895 45.3637C62.3923 45.0934 62.5275 44.6878 62.5275 44.2146C62.5275 43.809 62.3923 43.471 62.1895 43.2682C61.9867 43.0654 61.7163 42.9302 61.3783 42.9302Z" fill="white"/>
<path d="M66.6509 46.3104C66.5833 46.2428 66.5833 46.1076 66.5833 45.8372C66.2453 46.1752 65.8397 46.378 65.3666 46.378C64.961 46.378 64.623 46.2428 64.3526 46.04C64.0822 45.8372 63.947 45.4992 63.947 45.1612C63.947 44.7557 64.0822 44.4177 64.4202 44.1473C64.7582 43.8769 65.2314 43.8093 65.8397 43.8093H66.5157V43.4713C66.5157 43.2009 66.4481 42.9981 66.3129 42.8629C66.1777 42.7277 65.9749 42.6601 65.637 42.6601C65.3666 42.6601 65.1638 42.7277 65.0286 42.8629C64.8258 42.9981 64.7582 43.1333 64.7582 43.3361H64.0146C64.0146 43.1333 64.0822 42.9305 64.2174 42.7277C64.3526 42.5249 64.5554 42.3897 64.8258 42.2545C65.0962 42.1194 65.3666 42.0518 65.637 42.0518C66.1101 42.0518 66.5157 42.187 66.7861 42.3897C67.0565 42.5925 67.1917 42.9305 67.1917 43.4037V45.2964C67.1917 45.702 67.2593 45.9724 67.3269 46.2428V46.3104H66.6509ZM65.4342 45.7696C65.637 45.7696 65.8397 45.702 66.0425 45.5668C66.2453 45.4316 66.3805 45.2964 66.4481 45.0936V44.2149H65.9073C65.0286 44.2149 64.623 44.4853 64.623 44.9584C64.623 45.1612 64.6906 45.364 64.8258 45.4992C65.0286 45.702 65.2314 45.7696 65.4342 45.7696Z" fill="white"/>
<path d="M71.7883 42.1191V46.3102H71.0447V42.7275H69.6251L69.5575 44.2823C69.4899 45.0258 69.4224 45.499 69.2196 45.837C69.0168 46.175 68.7464 46.3102 68.2732 46.3102H68.0028V45.7018H68.2056C68.4084 45.7018 68.6112 45.5666 68.6788 45.2962C68.7464 45.0258 68.814 44.6202 68.8816 43.9443L68.9492 42.1867H71.7883V42.1191Z" fill="white"/>
<path d="M74.6273 46.3778C74.0866 46.3778 73.6134 46.175 73.2754 45.837C72.9374 45.4314 72.7346 44.9582 72.7346 44.3499V44.2147C72.7346 43.8091 72.8022 43.4035 73.005 43.1331C73.1402 42.7951 73.4106 42.5247 73.681 42.3895C73.9514 42.1867 74.2894 42.1191 74.6273 42.1191C75.1681 42.1191 75.5737 42.3219 75.9117 42.6599C76.1821 42.9979 76.3849 43.5387 76.3849 44.2147V44.485H73.5458C73.5458 44.8906 73.681 45.2286 73.8838 45.499C74.0866 45.7694 74.4246 45.9046 74.7625 45.9046C75.0329 45.9046 75.2357 45.837 75.3709 45.7694C75.5737 45.6342 75.7089 45.499 75.8441 45.3638L76.2497 45.7018C75.9117 46.1074 75.3709 46.3778 74.6273 46.3778ZM74.5597 42.6599C74.2894 42.6599 74.019 42.7951 73.8162 42.9979C73.6134 43.2007 73.4782 43.4711 73.4782 43.8767H75.5737V43.8091C75.5737 43.4711 75.4385 43.1331 75.3033 42.9979C75.1005 42.7275 74.8977 42.6599 74.5597 42.6599Z" fill="white"/>
<path d="M80.1704 42.7275H78.7508V46.3102H78.0073V42.7275H76.6553V42.1191H80.1704V42.7275Z" fill="white"/>
<path d="M83.4151 46.3104C83.3475 46.2428 83.3475 46.1076 83.3475 45.8372C83.0095 46.1752 82.6039 46.378 82.1307 46.378C81.7251 46.378 81.3872 46.2428 81.1168 46.04C80.8464 45.8372 80.7112 45.4992 80.7112 45.1612C80.7112 44.7557 80.8464 44.4177 81.1844 44.1473C81.5223 43.8769 81.9955 43.8093 82.6039 43.8093H83.2799V43.4713C83.2799 43.2009 83.2123 42.9981 83.0771 42.8629C82.9419 42.7277 82.7391 42.6601 82.4011 42.6601C82.1307 42.6601 81.9279 42.7277 81.7927 42.8629C81.5899 42.9981 81.5223 43.1333 81.5223 43.3361H80.7788C80.7788 43.1333 80.8464 42.9305 80.9816 42.7277C81.1168 42.5249 81.3196 42.3897 81.5899 42.2545C81.8603 42.1194 82.1307 42.0518 82.4011 42.0518C82.8743 42.0518 83.2799 42.187 83.5503 42.3897C83.8207 42.6601 83.9558 42.9305 83.9558 43.4037V45.2964C83.9558 45.702 84.0234 45.9724 84.091 46.2428V46.3104H83.4151ZM82.1983 45.7696C82.4011 45.7696 82.6039 45.702 82.8067 45.5668C83.0095 45.4316 83.1447 45.2964 83.2123 45.0936V44.2149H82.6715C81.7927 44.2149 81.3872 44.4853 81.3872 44.9584C81.3872 45.1612 81.4547 45.364 81.5899 45.4992C81.7927 45.702 81.9955 45.7696 82.1983 45.7696Z" fill="white"/>
<path d="M91.3915 44.4175C91.3239 45.0259 91.1212 45.4991 90.7156 45.837C90.31 46.175 89.7692 46.3778 89.0932 46.3778C88.3497 46.3778 87.8089 46.1074 87.4033 45.6342C86.9977 45.1611 86.7949 44.4851 86.7949 43.6063V43.2683C86.7949 42.7276 86.8625 42.2544 87.0653 41.8488C87.2681 41.4432 87.5385 41.1052 87.8765 40.9024C88.2145 40.6996 88.6201 40.5645 89.0932 40.5645C89.7692 40.5645 90.2424 40.7672 90.648 41.1052C91.0536 41.4432 91.2564 41.9164 91.3239 42.5924H90.1748C90.1748 42.2544 90.0396 41.984 89.9044 41.7812C89.7016 41.646 89.4988 41.5108 89.0932 41.5108C88.6877 41.5108 88.4173 41.646 88.2145 41.9164C88.0117 42.1868 87.9441 42.5924 87.9441 43.2007V43.6063C87.9441 44.2147 88.0117 44.6879 88.2145 44.9583C88.4173 45.2287 88.6877 45.3639 89.0932 45.3639C89.4312 45.3639 89.7016 45.2963 89.9044 45.0935C90.1072 44.9583 90.1748 44.6879 90.1748 44.3499H91.3915V44.4175Z" fill="white"/>
<path d="M94.0279 46.378C93.4195 46.378 92.9463 46.1752 92.5407 45.8372C92.1352 45.4316 91.9324 44.9584 91.9324 44.3501V44.2149C91.9324 43.8093 92 43.4037 92.2028 43.0657C92.338 42.7277 92.6083 42.4573 92.8787 42.3221C93.1491 42.1194 93.4871 42.0518 93.8927 42.0518C94.4335 42.0518 94.9066 42.2545 95.2446 42.5925C95.5826 42.9305 95.7178 43.4713 95.7178 44.1473V44.6205H93.0815C93.1491 44.8908 93.2167 45.0936 93.4195 45.2964C93.6223 45.4316 93.8251 45.5668 94.0955 45.5668C94.5011 45.5668 94.8391 45.4316 95.1094 45.0936L95.6502 45.702C95.515 45.9724 95.2446 46.1076 94.9743 46.2428C94.7039 46.3104 94.3659 46.378 94.0279 46.378ZM93.8927 42.9305C93.6899 42.9305 93.4871 42.9981 93.3519 43.1333C93.2167 43.2685 93.1491 43.4713 93.0815 43.8093H94.6363V43.7417C94.6363 43.4713 94.5687 43.2685 94.4335 43.1333C94.2983 42.9981 94.1631 42.9305 93.8927 42.9305Z" fill="white"/>
<path d="M96.4614 46.3102V42.1191H98.2189C98.7597 42.1191 99.2329 42.1867 99.5032 42.3895C99.7736 42.5923 99.9764 42.8627 99.9764 43.2683C99.9764 43.4711 99.9088 43.6063 99.7736 43.8091C99.6384 43.9443 99.4356 44.0795 99.2329 44.1471C99.5032 44.2147 99.7736 44.2823 99.9088 44.485C100.112 44.6202 100.179 44.823 100.179 45.0934C100.179 45.499 100.044 45.7694 99.7736 45.9722C99.5032 46.175 99.0301 46.3102 98.4893 46.3102H96.4614ZM97.5429 43.8091H98.2189C98.6245 43.8091 98.8273 43.6739 98.8273 43.4035C98.8273 43.2683 98.7597 43.1331 98.6921 43.0655C98.5569 42.9979 98.4217 42.9979 98.2189 42.9979H97.6105V43.8091H97.5429ZM97.5429 44.5526V45.3638H98.4217C98.8273 45.3638 99.0301 45.2286 99.0301 44.9582C99.0301 44.6878 98.8273 44.5526 98.4893 44.5526H97.5429Z" fill="white"/>
<path d="M103.289 46.3096C103.221 46.242 103.221 46.1068 103.154 45.904C102.883 46.1744 102.545 46.3772 102.072 46.3772C101.666 46.3772 101.328 46.242 101.058 46.0392C100.788 45.7688 100.652 45.4985 100.652 45.1605C100.652 44.6873 100.788 44.3493 101.126 44.1465C101.464 43.8761 101.937 43.8085 102.545 43.8085H103.086V43.5381C103.086 43.3353 103.018 43.2002 102.951 43.065C102.883 42.9298 102.68 42.8622 102.478 42.8622C102.275 42.8622 102.14 42.9298 102.004 42.9974C101.869 43.065 101.869 43.2001 101.869 43.3353H100.72C100.72 43.065 100.788 42.8622 100.923 42.6594C101.058 42.4566 101.261 42.3214 101.531 42.1862C101.802 42.051 102.14 41.9834 102.478 41.9834C103.018 41.9834 103.424 42.1186 103.694 42.389C103.965 42.6594 104.167 42.9974 104.167 43.4705V45.2957C104.167 45.7013 104.235 45.9716 104.303 46.1744V46.242H103.289V46.3096ZM102.342 45.4985C102.478 45.4985 102.68 45.4309 102.816 45.3633C102.951 45.2957 103.086 45.1605 103.154 45.0929V44.3493H102.748C102.207 44.3493 101.869 44.5521 101.869 44.9577V45.0253C101.869 45.1605 101.937 45.2957 102.004 45.3633C102.072 45.4985 102.207 45.4985 102.342 45.4985Z" fill="white"/>
<path d="M106.804 45.4992C107.006 45.4992 107.209 45.4316 107.277 45.2964C107.412 45.1612 107.48 45.026 107.48 44.8232H108.494C108.494 45.0936 108.426 45.364 108.291 45.6344C108.156 45.8372 107.953 46.04 107.682 46.1752C107.412 46.3104 107.142 46.378 106.804 46.378C106.195 46.378 105.722 46.1752 105.384 45.8372C105.046 45.4316 104.843 44.9584 104.843 44.2825V44.2149C104.843 43.5389 105.046 43.0657 105.384 42.6601C105.722 42.2545 106.195 42.0518 106.804 42.0518C107.344 42.0518 107.75 42.187 108.088 42.5249C108.426 42.7953 108.561 43.2009 108.561 43.7417H107.547C107.547 43.5389 107.48 43.3361 107.344 43.2009C107.209 43.0657 107.074 42.9981 106.804 42.9981C106.533 42.9981 106.331 43.0657 106.195 43.2685C106.06 43.4713 105.993 43.7417 105.993 44.2149V44.3501C105.993 44.7556 106.06 45.0936 106.195 45.2964C106.331 45.364 106.533 45.4992 106.804 45.4992Z" fill="white"/>
<path d="M112.685 42.9979H111.333V46.3102H110.184V42.9979H108.899V42.1191H112.685V42.9979Z" fill="white"/>
<path d="M112.955 44.1473C112.955 43.7417 113.023 43.3361 113.225 43.0657C113.361 42.7277 113.631 42.4573 113.901 42.3221C114.172 42.1194 114.577 42.0518 114.915 42.0518C115.456 42.0518 115.929 42.2545 116.267 42.5925C116.605 42.9305 116.808 43.4037 116.876 44.0121V44.2825C116.876 44.8908 116.673 45.4316 116.335 45.8372C115.997 46.2428 115.524 46.4456 114.915 46.4456C114.307 46.4456 113.834 46.2428 113.496 45.8372C113.158 45.4316 112.955 44.8908 112.955 44.1473ZM114.037 44.2825C114.037 44.6881 114.104 44.9584 114.239 45.1612C114.375 45.364 114.577 45.4992 114.848 45.4992C115.118 45.4992 115.321 45.364 115.456 45.1612C115.591 44.9584 115.659 44.6205 115.659 44.1473C115.659 43.7417 115.591 43.4713 115.456 43.2685C115.321 43.0657 115.118 42.9305 114.848 42.9305C114.577 42.9305 114.375 43.0657 114.239 43.2685C114.172 43.4713 114.037 43.8093 114.037 44.2825Z" fill="white"/>
<path d="M121.202 46.3102H120.053V42.9979H118.633V46.3102H117.619V42.1191H121.269V46.3102H121.202Z" fill="white"/>
<path d="M121.945 44.1473C121.945 43.7417 122.013 43.3361 122.216 43.0657C122.351 42.7277 122.621 42.4573 122.892 42.3221C123.162 42.1194 123.568 42.0518 123.906 42.0518C124.447 42.0518 124.92 42.2545 125.258 42.5925C125.596 42.9305 125.799 43.4037 125.866 44.0121V44.2825C125.866 44.8908 125.663 45.4316 125.325 45.8372C124.987 46.2428 124.514 46.4456 123.906 46.4456C123.297 46.4456 122.824 46.2428 122.486 45.8372C122.081 45.4316 121.945 44.8908 121.945 44.1473ZM123.027 44.2825C123.027 44.6881 123.095 44.9584 123.23 45.1612C123.365 45.364 123.568 45.4992 123.838 45.4992C124.109 45.4992 124.311 45.364 124.447 45.1612C124.582 44.9584 124.649 44.6205 124.649 44.1473C124.649 43.7417 124.582 43.4713 124.447 43.2685C124.311 43.0657 124.109 42.9305 123.838 42.9305C123.568 42.9305 123.365 43.0657 123.23 43.2685C123.095 43.4713 123.027 43.8093 123.027 44.2825Z" fill="white"/>
<path d="M130.125 42.1191V46.3102H128.976V42.9979H127.962L127.894 44.2823C127.826 44.9582 127.691 45.499 127.489 45.7694C127.286 46.1074 126.948 46.2426 126.475 46.2426H126.069V45.3638H126.204C126.407 45.3638 126.542 45.2286 126.677 45.0258C126.745 44.823 126.813 44.4174 126.88 43.8767L126.948 42.1191H130.125Z" fill="white"/>
<path d="M132.153 43.3357H132.964C133.302 43.3357 133.64 43.4033 133.91 43.5385C134.181 43.6737 134.383 43.8089 134.519 44.0792C134.654 44.282 134.721 44.5524 134.721 44.8904C134.721 45.3636 134.586 45.7016 134.248 45.972C133.91 46.2424 133.505 46.3776 132.896 46.3776H131.003V42.1865H132.153V43.3357ZM132.153 44.2144V45.3636H132.964C133.167 45.3636 133.369 45.296 133.505 45.2284C133.64 45.0932 133.707 44.958 133.707 44.8228C133.707 44.62 133.64 44.4848 133.505 44.4172C133.369 44.282 133.234 44.282 132.964 44.282H132.153V44.2144Z" fill="white"/>
</svg>
