<svg width="1866" height="344" viewBox="0 0 1866 344" fill="none" xmlns="http://www.w3.org/2000/svg">
<path d="M1411.11 227.17C1411.11 227.17 1155.3 219.998 959.266 257.054C812.238 284.547 796.101 310.845 533.721 329.373C314.375 332.959 22.709 334.154 22.709 334.154L23.9043 343.119L1199.53 341.326C1199.53 341.326 1205.51 338.338 1212.08 334.154C1231.21 323.994 1273.05 304.868 1342.97 286.34C1534.23 236.136 1853.39 245.698 1853.39 245.698L1855.78 234.342L1411.11 227.17Z" fill="#3F5BAB"/>
<path d="M874.39 202.067C1077 127.357 1405.13 131.541 1610.13 143.495C1568.29 139.311 1493.58 132.736 1362.69 123.174C1120.04 105.243 989.144 94.4852 874.39 115.404C759.039 136.92 697.478 178.757 632.93 203.262C550.45 234.341 484.108 258.248 440.478 263.627C503.832 264.225 724.374 257.651 874.39 202.067Z" fill="#3F5BAB"/>
<path d="M875.599 205.655C782.362 240.321 664.62 255.263 582.141 261.837C540.304 265.423 499.662 266.618 469.18 267.216C534.327 270.204 668.206 271.997 808.062 248.09C932.379 227.172 967.642 221.793 1186.99 212.23C1403.94 202.667 1613.73 215.218 1613.73 215.218L1654.97 150.669C1457.14 136.325 1093.15 125.567 875.599 205.655Z" fill="#3F5BAB"/>
<path d="M1853.99 138.714C1586.23 112.416 1403.35 95.6814 1309.51 88.5093C1284.41 86.7163 1257.51 84.3256 1229.42 81.3372C1090.76 68.7861 918.631 53.2465 781.763 77.1535C733.352 85.521 693.307 95.0838 654.458 103.451C561.221 124.968 480.535 143.495 314.979 146.484C213.972 148.277 151.813 148.875 109.976 148.875C90.2529 148.875 74.7133 148.875 61.5645 148.277C105.792 152.461 171.537 162.621 245.051 185.93C379.528 228.365 472.167 208.642 585.726 174.575C730.363 131.542 827.784 64.0047 1068.05 81.3372C1337 101.061 1852.8 144.093 1852.8 144.093L1865.35 144.691L1863.56 139.312L1853.99 138.714Z" fill="#3F5BAB"/>
<path d="M2.3907 145.287V143.494C11.9535 143.494 20.321 143.494 29.2861 143.494C72.3187 144.69 120.73 145.287 314.975 142.299C479.933 139.311 560.62 120.783 653.259 99.8641C692.108 90.8989 731.555 81.9338 780.564 73.5663C918.029 49.0616 1090.76 65.1989 1229.42 77.7501C1257.51 80.1408 1284.4 82.5315 1309.51 84.9222C1403.34 92.0943 1586.23 109.427 1853.99 135.127H1855.18C1775.69 120.185 1030.39 -14.292 728.566 1.24759C409.408 17.3848 265.368 123.771 15.5396 128.552C8.96513 128.552 5.37908 129.15 0 129.748L2.3907 145.287Z" fill="#3F5BAB"/>
</svg>
